<mxfile host="app.diagrams.net" modified="2021-03-14T09:18:34.379Z" agent="5.0 (Windows NT 10.0; Win64; x64) AppleWebKit/537.36 (KHTML, like Gecko) Chrome/89.0.4389.82 Safari/537.36" etag="GFCQxvLqJJ5z2rksxC3I" version="14.4.7" type="github">
  <diagram id="aZJ1PPTeN2PVppSLP8XZ" name="第 1 页">
    <mxGraphModel dx="981" dy="553" grid="1" gridSize="10" guides="1" tooltips="1" connect="1" arrows="1" fold="1" page="1" pageScale="1" pageWidth="827" pageHeight="1169" math="0" shadow="0">
      <root>
        <mxCell id="0" />
        <mxCell id="1" parent="0" />
        <mxCell id="0ve0YzcXfAbjLbMnPAbi-1" value="" style="shape=image;verticalLabelPosition=bottom;labelBackgroundColor=#ffffff;verticalAlign=top;aspect=fixed;imageAspect=0;image=data:image/png,iVBORw0KGgoAAAANSUhEUgAAAEAAAABACAYAAACqaXHeAAAAOXRFWHRTb2Z0d2FyZQBNYXRwbG90bGliIHZlcnNpb24zLjMuNCwgaHR0cHM6Ly9tYXRwbG90bGliLm9yZy8QVMy6AAAACXBIWXMAAC4jAAAuIwF4pT92AAAbsUlEQVR4nHWbe/BtSXXXP726997n9Xvc3/3duXOHYSbDMEMIyNviES2UsgxCanBMKpZCoXloxECZkkpJNLFKQ2kFq8yjtEKCUdSYRCKSgkikAiZCIjMEAjIBJgzzZGbu3Pfvcc7ZZz+62z96rz7nDHFX/ebcOa/dvfq71vqu71rHfPrR58VFqHiovZkQBTGBG/2UwnjEBJa+YiQdAKtQMLENAHM/AmAiLQDLUCJEAobCeLpo8VGofcGuW3Gl3WG/WHJreZ2JNFgTebQ5x3E/ZmYbduwKj+Fqt0OIBjExf781gS5agG+5h5De10VLFy07dsWpH3HgFnTRsgoFeul3ABTGc9KPcFf8Lgd2ThMKumi53k/ZsSvEBM67Yx71N3G53eFMsWRiG+Z+hI+CNYHCeFahIGCYSMsylPlxFQoOi1OsGfGbv/QXOPuVFdJ6PmcMpvOYCPQBEwLRSVqVCNEaQmU5vmPErT/wDd587gEerC8gJrJjVxz3Yyrp8XH4jAksfcmeqymiz6/r5q0J+b0hGia2ZRUKmuCopMd89OEXx2v9jGM/ZRUdTSiYSMupH2VLV9LlExciI+lYhYKRdHTRpvdGQyU9F1d7TF3DQz90F8RIGBcEJ0gfMI1Pa47p1Ezn8+ajCAgYH4mFhT6AEwiBaIUzP/MUL955eusUl75kYls2Lz0cff2wmHPqR9kQTXAZXSEazIceekU8DSOu97P0BRiaUGxtWjeuX6yLWPqSSvr8nk88+UJueucKf25vvQHSSafDCkQR5NEnMbMZ4XCPaAz2+gnxZI6/61aMDxDIhorGgECoHO54xZ+8Z8LbX3I/y1BSmGRQa8IW1J99qbvUvuBMscyHN5EW88eP3xKvhAn3L+8kRMm+pCe/9BXLUAIwkg4hMvcVlfRcanY5X53wqYt3s/9jBdgE7zBOi4lWEtRDIFSOu3/uQcQExrbLiwfyqfRBeE51xH/6xTdy8+8fgwBhbQh99NOCqz+24s23f4XCeAKGeV9xplhy6kcUxm9BX4106OasohsOr+JaN8X8hz95TQwIjzeHGdJqMYU2gJhIiIaZbTjpR+y6FQduwcf/+msTpGMklo5QWkyEOBhDnrzCKz5xMfscwIFbcLHdY2abbHC99GSeavb50k+9nMmTi/RCSAjCGKJNa4qF5TW/+IV8oqtQ5PXqtedq9mzNKjom0tKEAk96z8j0mH/xx38lignphSjZCD4KYXij3kAt2gTHp568m/M/KcmHRQilRVq/Bf3H37TD99z7GQBqX6yN6BpWodhCweZJKZxrX/CxL7+UF/xCg+l8MrJIjiHRGMLY8cSPBt5y1wP5O3bsKkNf9wZwxi0IUTIKAOTUj1j6KsEilDl66oZ9lBztu2g56Ud88t+9lrPvG+fNEwKy6tKJtz2m7vj6j5S86Z772LErRtLhJDCxLWOb3ChEgzUhp1jdvKbVEA1j2/G9L/sCj7zbpFgASNNh2h7T9kjTIV3guT9v+ehHXsdEWm4tb3DGLagGJI1MQl0XLZe73ezOepkvPn5rfEk54pePb+a6nyYLhYJlKDOcmuAY27TQP3rXy7B1BwFiIcTC4o7qZAyTFvrYvbt87z2/jzUBIXKp3eWW6uj/e+oT2+Q0DCngdtEyko5TP2LRV/z2H7ycu/5LcgdTd/i9Ed3MsTpw2DYSnGF5Xnjr3/1EDuJNKFiFgh27YiLtlrud+hF7bon5p1++J+oC9NJUomg47UfcUh3xyX/05xk9s8zRHCcZmviIiRE/LXndB76Q3Wdro9JmJHXRcuAWXO1mW2mpkj4HsVM/ykg86Ud8/e/cTRg72v2SaA3RAhEwEKwhOENw8D0//jtYIqd+xMQ2meApGjTdF8ZjfuLLb4lqpc1Uoid10o+YuYbPvPs1FPMBriFiukRidOMAoXS8+oNfYulLal8yHnJ0JX1OocoOddNKWnTT19oZ+8WSJjhuKk+42u1Q+7Suse340jtegml8vme3P6KfpFMNRTL6/ILl+9/18Qx3Ge6d0LxGoZiAXCiOOF+cMJE2L6IwnmUoOelHXO+mfOQ/vn578zGRGDPk9+iEMHI8/Ya9bMT9Ysmeq5nYltonKCoRcRLYc3U2zCbVVqOJicyHlFYYz65b0Qfh0XumCXUAfaC8smD81JxikU43OMP0UuCX3/9mJtJubd4Sc2zQ58UjOS1MbENh/FZgeuz0gJvvG3zPR6T1mLoDaxJjc5Iis4/88A9+bAvymjXOFMts4Iltc6ZRf9xE3iaz0+cVLV20vOWN9xHHRTqAEPRGuKMVkycWjC81uKVn/5GOn/v4m2hCgSXmGKNZIAxrkxAl/4/eRPOpk8D4nQVGaWwIRGOIlSWKpH8XljApaA7HfG1xy0Cg+swllr7kRjchYAgYfBTmfbVlJC14JtLmrNMH4cAtMly7aDOPOHrBlOhSAI5OsiGk6XDzlupqjVt4zn8u8PDyXGaNMqDbDkF2R1aI+smpH9GEIldXM9tw/0/8WcLuOPl7jAMC0iJiIYSxS8HIGW79qYfYL5YAmZ3p4meuYSJtTnFj2zGziUiNpGPHrpjZVUbgxDbsulUyYCgzfxATWfiK17/7PvCJEzCkR3wEY1J6XPUURytG13q++Z67eOHo6bSm4aCTMTsudXuIDNFWjRAwPFEfcK2bUt5IC46VTadtDGFSgiSKK/W6DnjR7OIWiwQImHxqq1BwtZtR+8QxtOjas3V2wRCFiW0YmZ4du6KSjsPilAO3yK7hjE/GOF1gQsjxwHR9ckmfqkulzvW5gp/8z2/LAXHT9UbSIfOhUgoYQkwQPazmPPyWc9hlB8NNNkmOqbt1ICIZ4vqgIXTRZja39OUa5rZBTMRJ4uinfsT1fsoylFhiRkfy+ZDRoymsMJ4Dt+Cm8pTbqut89ccv0J0Z46cloSqI4xL6QByt44k7aphcbDh8oOdCcbRV5yhSZelLlr7ER8mn1QchHO6ljTc+p53oUu6PhU0GaTpM43n03hl9kMwUl35NorpoaYLjuJ/kiK4+GTDZEDf66RB7hBv9NBlHGerwuAoFZ9yCq/2Mv/edv4uvBD8t6M6M6PZH+N2KMC6IpUuldUxB2809v/Cv7wVIBV4omfsRp36EU26ui3YSePAtF+DQrOvy4TJ9gBhTyepsYn6V5d43fpaJtJz0o8HXzEZF2dOR/j33FTPb0ATHyHbZ9Q7cIkNUH5WOKxmCRJVv9FOEmMSONuBLIYpBfCSUgukjJkSefe1/o+HW8jqPN4f59CvpEN18gl5SXbrbDgemZVJhM+T5WNgh9Q0xwQmmSdCc+wonASdrg41tl6u7K+1O9mPNEvp36kcIMa9DKbP+rTZosj5e66YsbyqRLiI+Jn7SDxs3a9ElisEE8KXwz37vrxIw3FZeo4uWuR8hkHJvJT0hGn71N96ANH0qckglJ5DSYJ+YX06FTrDHi7yoPgh9EMRExraj9kWO6ufK0yyf6bUpaFgTmA16o25UJS3VIY77cX7ubLHg0nc3CeZdwHZrw0djiGLwlWBXPdEZTITn/0rKRFf7nXTgRESDVRNSiXj7zz6A8THpdUPupw+Z9ECqy6Xukkv4pMMBOAmIiYhJstnYdkP036GLlj5IrjNO/WhLB9BNazBUsqTPKw9QRAC87SWfwygt7yO28ZgQEZ+M4VY+leldgBDp9opcjyx9ScAgfUj0tAmOm6tj4t235RSST37YdBIz1/5l+sC1P/cc6o2gp5vXSwOeNck9umgzEVKZCthKxXrVvsjGBfI6lR8cujnuuEl6o0/xSVqf4kAXCFZQwLnaQ4Cf+dQbCRj2XJ0QICZyZiAwv/7oK5PyohXeEANMjJn3A8TSpT8nXHkVTF2T6aqekPrxRNoM4Ym07NgVTkJG3Mw1WWgtjM/Pq97YBJcLKDXwRFJ9canbxdRtOhifgp80fTIGJGN0ARMioRCkC9z54TYbP2CSAa60O/TRIh85m9jdQDHTbof0t3nyXYoHoXI890XPpI3YJqdChfB8Q09UKqxG2QyESpkzgYqGJjiutjN23SrpCoOB+yDMfZXjh1nUSU43rLlJiNi6+1OzgTtuOHTzdUUIcK485aBYsPdIw/LCiPmdM/qdCj+rUk4dTp3eZ2VGg+N3nHmGwni+Nr+ZmWu2BA8NrKd+lP1WH9UtNjV6a5JqpJs9KNbNDX1PF+1WcRRPThMxi2lNWrAhkuJDSEHbLjukj7QH4yz5+Si4O6orXO13kkTcB2w7WHpiAYurBdMlodN1PqFjUGuBrPTcPrn+LdK0kqBdt9p6TpUiIcJwupsqrqZO/bwa86ibZOMtQgV0cOvN6TBCwATW3CUEpE0otYP72mWHnxY8tjrLmWKZXNOTqq89u6Q5LImWtMEheARr6PYKfGVpb5oSJgXRpiZGt1vmhT5bjRVi1uE3T1uD4DKUOSVqjMhaxOAOighNj2PbUg3ZQQbF6vQFZ4iVTQcyuIJmK0Wv8SFpGD5g657/9cTdGY0SBl7uEaSNGA/Sx3zCoRQIJNpZCs1BiZ8W9LsVrvb4oYZIrpf+rSnsbJF0hGvdNJMcZZvAVmmspTKQNzwbVKplKLMh9LOV9FTSU58VopWkT+qhFcNzBhB9MqGBEImf32Ppy4REDVJXux18JUQL0gSiM0gfkTZgm4D4SBSDbRL97EeWUAoj0+fF7Lk6++dIOq5100Hl6aikZ9FX7Ll6K+LvutW3GELV6eVGsFOZvg/Coq9yidwcmEzPpfXpsQs5JkBq0EBihYjh8IFU89zoJjj1s5FLUVP6NacOzkA0SBcGa5Jha0JkdXYd0HSRqsmf+lH2/fPFCVf7GdONfsBqCGbWBJahzL2CJrhv6fcpr1BEOGmyPhBsWovxkVAOAkkfUoNmeD4RuSEoNh5pUxo+WyxwhfHMbMPldif5fVj7v7QBxBCqtWKkr0VrmFxsWEWXuzKqwEJSgAMmyeLdbiq5o6FjnerExK2uDqwlMRVmNhnh5XY3ZwtVreoLniiGMErwBtYp3BhCaaEc6HznCZN1oF6GMiEgCxeaNiNEZ4jBpBgAqdDYiHPGR1aHqZZvBmZ24BYch3HuMG1yeUWKpiCdCbjY7m2V4fOQiqo+CGeKJcf9mD1XJ52imOdAqgYub1j8yBFliF2bhzT8xygCXHrBNoFdt0pjAGfcgqUvedHkKXyZ5C1M2nB0ZsirIW9a2pANhElQ9zHpd8d+TVtVavdDo2U1KEB6ddFy7Mc54BXG4yRktxnbdPLaP9wcktDP+yiEMsnydrXReo9kEhTFpKbts6rFJrjUk7jRT6mkZyINJoIvDaE0+JEywfQQSjMML0h2FeNTH25TV4R1dbcM5RYCtC7QdtkmzPVPY4xyBXUjPfmAyekSoLphkibg1j1D0yfxdtMIURKafWU5ujMF3JltcHqzP5w/D7cMYNIHJISUDWz6sLRx6wtNiARrmEiiwDoRoo0HPa3N6k1dQ0ygGpqWlXS5HacI2Qyqm9+lfq8FlzUBuwLpUoYKkjKXsYMbRBAf8IVWsSTK7FOs6aJFfBSEyJ6rU8UUE9SJiQNEZ4YSM91Ei47kErAMFWObFqPtNYWnLhrIs0WQdD7tRocozOwqnfQGzDeNIMTcr1B6DcOEyKUw1PtpjdJq9RqzLmBCig+aFa6/NK57Dgq5LlrsosuWi9ZkQ0RrCEVyjVAlowD4Kj2qr+uCVfjQEz9wC0amZ2KboRcYtkZZdChLmxerUGyVxUB2BZXZtFos5x4GNEKS69XXt0r3OKR1MbzyVQ9lI4uezkRarr94loKGSRb0Y0kw6pMhZOjCqhsEZ/ja4gLX+2nejPrybIMPHPsxx37M3I+4rbqeJPFnDUfo48yucgwJmBwXFBFzX2WK3EVLMe+J1uQ14lPpq8qVoiEMZCgUhrtnlwnRMPcVkkZekjLLX7uWTn1AgZv77OtrbhCzkdwq8NDxua2his1LjaEbFWIOmJaYKzJY5/25H+U22mb8UEo8G5onuck6CDaqA4bSpi5xabfT9kDy3CIx0KNuwjfrM4i2pEbS8X3f9oX8IV8JoZR1HFAfCutUSISL91/IYocSFIWzpkhdsCLCD7NIm8qRuo/K5tq9UeNo5A+YzBjPFgtk1acguHHa4teyWDQJqdJ63GlDeWVB7UsK8bxw9szgAkPb6nK7S3VlRSgS5wfyxtXvgZQiB+Jx4bN9nifSqk+/c3NY6dmTILrJTeRsDkhA6geoO+jndHgiD1dOy6RYhTi0y0wOgCZE7KqnvLHCLlMP49orD1j4krG0XGp3ER2OTFS25bF7ZlRX2ySJR0CSv7ulz8NPmnakCRSL1Mba7P930eKHfL25MWtCDpgK8T23zFxBA+CmUfQxd4qGgihNqnX0Y0soEgeIhSA+IE1q3UvdJ4ms8UN3q+fM334CN2SspEkMC9Prnfd+nPp8tdYEQkJBP7I5AGIYig+h3S0QHUHbmP7QGcM/zQUUzl20HPeTLHKqK6r+p8RHeweaEse2Y2JbvnR6Wwp4mvK0URoibt5ij2vkpF630a3wZ/afppDUKQ4YRBenzOxrywtMnmkSe7JpSBGz/jN+oJTKKkPkD4++jev9NLO0mV3lE1PWZ03IPq0oURSoy2hKvqk83YL89X4KpKCqrvP0ap9PfvXbE8yH7nVx2uKu1dijJWaxVqG0g6wCyeYlemLKt3fcioP3PYFt1zFAAx5hoJVuoMuVEJzh8V+6O6WUjUiuG1X9v4uWq93OFt3d5PabbLGLlj233HIbfU0zy66ruf1DkrSKxmPnLfbqSeoa9z79tV3afIyE0nHHBx5JgszQKs+NEYWjlqYv3/0m5VFHHPwfQ2o/QZ7elDbilqkUHd1I5EQ3prDfHIrQQYhqY97w0M3zKW+2r4/7cR7K1gCrMWLpS+Z9xVE3YfL4Me64wd5YIid16lWWBbFw6a8sUhuvsMjD30SIW627JjgkxKTAbAadUz/Cvfdy2jzkajAjwqxFCNsEfGVSD1/WmrvCFtajNxobtOl57MdZ6dlsgFbSswoFtS+yMTdZYBctr9v7BhiDLJvUvdI02PVbEj4+TbQ971OJip/2aewujf61qS+giz7pR1mFfeHuM+x+KWn+4hMZki5g25DK4k65d8DVgV/5t9+VaO5GkyMBJuZ0pgZW1OWMMSBEBnK0lszWE10n/Ygr7Q7XuzTL+LMPvgG6YUDDbDIekzrXziYUjArk4W/mwApkiU4BTR/Ww0x6MzGRV/3mN3Cr1AuQLqlD/cjm2sCXkkTHCLuP9dw5upwZ32beV1/f2QiO+nwT3Hq8fSifNWbsF0vmvsr/ry5W+4Jb/mXaJFbScISzhN0JcTJK80vDHCPAPfc9nLXKcR7TSTxFal/gJMlVKkymGZ6GG92ER39wEEaGdCg+UUoT1xlB54Te9/nvyhuodHh5yAybzZHNcTwxkXlf5U7ytXaWhqqi4Xo3pQmORV/Ra80QLHdPL2HnDVEkD0SE6XrwynR93vyDf3/GlxfPpZKe/WKZJXWdi5AQU0s79eFSvd0H4VK7S2E8r77jMYJN5aaJcci5a8RFAVunhuQdHzSZqWnE18ywGRTnvsrcHtZd5donfUAN4zYGGrtgccbTR+H997+eMK3yvILOMoSRI5QpABIjcuOUv/Syr6ZobwJH3YRK+tQGNJEb3SQNSQFD66nLUFEkHFZzvuOfP0D51DG27nM2UJdIGvwgl4+ED973nYykY9FXucGhzRPtDdR+/WMHNfi2WxRcb6db43u7rqaPlrHteOE/eWJohyWV1wwDEoSYRnjGBebpq3z7f3+KQvy6pjAhTbBKS+3LZAi1tvbkVGyY2obaF+lNRF7xoa9jH76I6QJu0eeiSA0SBYhw+0dhz9aMbUsTHLVP02E6JLn0JWfLed7Y5kC2CioBkyL08OMKRacQ+Z9feRHx5rOpXd/2ieVpexxyk/Q5v7WkDiU7w7hdupfkIepKOpzxiJM0mbHZs1dDdNEyHnL3UTfheR8/obgyzyNyMhijmPfYlcetPNJF/tt7/zJiIpX0WxF3PjQ01Oc1UOYiyARClOGefW6mLAbev18secHPLNddYGMwqy5TXW2OjH/+CmPbMpaW035EGFKpImFstZ0niQdo1Fdf1SEEXVwdysE9Ai/6tYcpHruM6dJvBLZybkyuUZ56fuOBV2y5k6bXwvg8eq8uoX45tt1w8kmiU3S4YVb4i999G6beaJrEmDKBuuVJzZ0feJibx6fDeF1kaps8f6wkSH+LUEmX0qC+oHN8IUr203pYZDOMsNW+5MW/9TTt2VFiWHWPXbTYukslZxewdeDWDzs+e/mOPAWic0M65aH30wXdUh1tTZmswvALEwxniwWf/aFXEvZ3iJMqn34sbB7XtTcWvO7DX00nPKBWkaxCqq5DTMwHIZuL6UNSWaauGUbWC3ZdzY5bMXVN9s8QDS//6S/yyL3Tte42kEVpfarBj3vcvzrgf/z662hCwWKgr5eanYyw2hec9OOc52e2yaLnST9iYlu+euNmPvMPXpMivf4YS9adH5zw9F/c4/b/+gyX250h9hR5P3rAeuqKOD0I8wOf+1txv1gOUxnpBmfLeZ7535za1C9LzcmQffsrb9gl3HlrHq+JlcX0AT8tU3uqEN70b36Pi+0eIRqOukmy/vAdYiKLvsqB86gbs1/UfOOtt+PPTNJvCc3Q5u4T7TWdx1w/5uW//RQj6Xim2aMJjkI84yHrqMvputUgGp+a4DA/+kffF58dJTcvNYr25ZXTh4HDj6XlqJvw6Ueez13vXa5LzpiGl3XCrN+rKG7UPPiuKf/wtb/DE80BR92E89VJ/nntSydP8J5ffTu3/m6q/uyyS9FdZOu3h+bpq5z/2AofDTPXZr6QUpswHTKI0ul1Gly7nO7ZvP3+7486iqIpceErxtLy1Gqfg3KZy0c1RDNocoVs0NqQhiQ+8+idPP8dj8Et5wcDpPfEwg2ipctNSuOTcUwzoGZjIk0hbtqeWDpM2zO/a58X/OOv0EdJrbNgGdt2QE+KL/qaXkp9nYSBaKWT1/2YH/nC34ibp1lv/KpKb6CW1DSlRkhWL6hsn98P0EfhsJzzBz/9as58+jHC+YP8O2GGcTYGtgak59zGzGDXE8sC03bEccm59z/FzLXM+5LdIRbpzFDAUPuCHbeikp6n6nRoz76mrsmuu7kf847PvzWuSUva/K6r0zo2BItdt6L2xbe4AaS8Wg/DlhpxC/F0wdJHwUfD3dPL/Pv//Xqe/2srzP/5v8hohJw/lxBiDP7KVey5Q77+rtv4m2/8NE/WZ3IzpLI9XUiDkrUv8glrcZRI2/rgal/kIK7G0nWObcflZicjyPzw598W531JJX4gHyl96IeUCWZIDZvVAKbuctKPGdt2i75uoqrxLgcfPTVn1tE5TYvUWwgEBv5vtxqllXRb79Pv3nV14vu2X6s+JgXtNQIi+8WSo25CIZ7/BwXugQefKHWmAAAAAElFTkSuQmCC;" vertex="1" parent="1">
          <mxGeometry x="160" y="157" width="64" height="64" as="geometry" />
        </mxCell>
        <mxCell id="0ve0YzcXfAbjLbMnPAbi-2" value="" style="shape=image;verticalLabelPosition=bottom;labelBackgroundColor=#ffffff;verticalAlign=top;aspect=fixed;imageAspect=0;image=data:image/png,iVBORw0KGgoAAAANSUhEUgAAAYIAAADZCAYAAAAtxDcJAAAgAElEQVR4Ae2dh3cUSZbu549757zz3tvdcdsz3TOzO2an7bSju2ka7z1CIG9AQkh4AUIgEAgkEALhQd57772XuO/8opSlrFSWUKmhJVE3zsnKzEoX8YX5btx7I+JXbV390tzZL7VNnbopBloGtAxoGQiiMtDU3iutnX3yq+aOfukbHJbR8QndFAMtA1oGtAwEURnoGxyRpvY++RU9gbGJSdGgCCgCioAiEFwI0PbDAYYI6A1oUAQUAUVAEQguBGj7lQiCK881tYqAIqAI+CCgROADh54oAoqAIhB8CCgRBF+ea4oVAUVAEfBBQInABw49UQQUAUUg+BBQIgi+PNcUKwKKgCLgg4ASgQ8ceqIIKAKKQPAhoEQQfHmuKVYEFAFFwAcBJQIfOPREEVAEFIHgQ0CJIPjyXFOsCCgCioAPAkoEPnDoiSKgCCgCwYeAEkHw5bmmWBFQBBQBHwSUCHzg0BNFQBFQBIIPASWC4MtzTbEioAgoAj4IKBH4wKEnioAioAgEHwJKBMGX55piRUARUAR8EFAi8IFDTxQBRUARCD4ElAiCL881xYqAIqAI+CCgROADh54oAoqAIhB8CCgRBF+ea4oVAUVAEfBBQInABw49UQQUAUUg+BBQIgi+PNcUKwKKgCLgg4ASgQ8ceqIIKAKKQPAhoEQQfHmuKVYEFAFFwAcBJQIfOPREEVAEFIHgQ0CJIPjyXFOsCCgCioAPAkoEPnDoiSKgCCgCwYeAEkHw5bmmWBFQBBQBHwSUCHzg0BNFQBFQBIIPASWC4MtzTbEioAgoAj4IKBH4wKEnioAioAgEHwJKBMGX55piRUARUAR8EFAi8IFDTxQBRUARCD4ElAiCL881xYqAIqAI+CCgROADh54oAoqAIhB8CCgRBF+ea4oVAUVAEfBBQInABw49UQQUAUUg+BBQIgi+PNcUKwKKgCLgg4ASgQ8ceqIIKAKKQPAhoEQQfHmuKVYEFAFFwAcBJQIfOPREEVAEFIHgQ0CJIPjyXFOsCCgCioAPAkoEPnDoiSKgCCgCwYeAEkHw5bmmWBFQBBQBHwSUCHzg0BNFQBFQBIIPASWC4MtzTbEioAgoAj4IBEwEfX0DkpJ6Qw5GJkvUiVTp7Or1vjD/WaHsCz8hh6KSZV/YCTl2Kk2GhkfM9devRbLuPZYjsWfk/JUsGRuf8D7HQfb9p3Ik7oycuXxTRkbHfK7piSKgCCgCisC7QyAgIhgYGpaoxAvysqhCenr75dTFG7JxT5SMjI6bGNLQF5VWSX1Tq9Q0NEtLW6fMzMyYa2nX78rOw8eko7NHTl/KlNiki/IadhCR61l5svVArLR1dMuF9NsScfy8TE97njM36I8ioAgoAorAO0MgICIoKquWf67ZJf0DQyZCY2Pj8uOOo1JT12zOcx8+l+nZht8e45GRUflh21F5VVxh/h4cGpEftoVKQ3ObIYp1O8PkyYsS7zvXbjsiFdX19lfosSKgCCgCisA7QiAgIugfHJJrt+5LZ7dHHdTe2S07Q+KFhp2Qm/9cnr4qNSqhi9fuyPis+qessla+2XTISyDcu3lvtNy5/8T0Ar7ecFC6e/q9Sdx+KE4uX8/xnr/pgJ5F78CI9PQPSU//sG6KgZYBLQNBVwa6+wZleMSjnXlTm+m8HhAROB++mZMvN7Ifev8+cSZdbuc+loLiSjlx9qqExZ81PYSnL0tk455ImZyc8t67OzRBbmTnS0VNg6zfFe5jMzgQkSTn0m55733TwczMa2nr6pfm9h5p6ejVTTHQMqBlIOjKQFNbt/QODL+puXS9vmQiqKlvltu5T2Rqatr74vrGVq9uf3xiUtbtCJOm1g55WVRuiMB+L0SQmZMv5VV1sn53uHC/FQIlAus53SsCioAioAgEjsCSiIAG/+6D5zIxOdd4u316z5EEeV5QJrUNzbJmy2GvCol7t+yPkZt3H0lzW4d8uylEevsHva/YeTjeGI29f+iBIqAIKAKKwDtDIGAiqK5rlszsfJmYleBHRsYEY3BrR7dxGW1u7TCRxVtoy75oKSmvNbaCNZsPS2Vto7mG7eCnnWFSWdNo1EXfbw2VkvIac21qelrW744w6qV3lmp9sSKgCCgCioAXgYCIoLu33+juMRJPTEzIwOCwMR7jJtre2WMk+7rGVvPyuw+fGdfS0dkxAYln0iUkOsXYDG7ceSCRCee97qOnUm8YEoEEUDcdjTvrVTF5Y6oHioAioAgoAu8EgYCIoLC0Sjbvi5Z9YYmy92iiUe/sPpIgo7PjCJDq41MuCyqh0JjTYpECMcfV9NTFTDMQ7fjpK9Ld0+dNEPaBs5dvmWs8b3kleW/QA0VAEVAEFIF3hkBARICb5tj4uAwNj3o3pHh7GJ/tKfgbEGa5mtqfsY4Hh0e8vQTrP90rAoqAIqAIvFsEAiKCdxsVfbsioAgoAorAciCgRLAcqOs3FQFFQBFYQQgoEaygzNCoKAKKgCKwHAgoESwH6vpNRUARUARWEAJKBCsoMzQqioAioAgsBwJKBMuBun5TEVAEFIEVhIASwQrKDI2KIqAIKALLgYASwXKgrt9UBBQBRWAFIaBEsIIyQ6OiCCgCisByIKBEsByo6zcVAUVAEVhBCCgRrKDM0KgoAoqAIrAcCCgRLAfq+k1FQBFQBFYQAkoEKygzNCqKgCKgCCwHAkoEy4G6flMRUAQUgRWEQMBEwDoCSeeuyb6wJLM4fVtHtzc50zMzcvVWrlmA5lxaljAltRVYYP76nQcSEn1KTl/M9K5hwHWmt76Z88hcS75w3UxxbT2ne0VAEVAEFIF3i0BARNA/MCQRx89JUWm1WZ3sXNotWb87UliuknDmUqbsD0uSnr4BSUm9LvHJl72xv3jtjuwKPS49vQNy7sotiUq44F174OrNXNl+ME66evrlUka2IRh/6xl4X6gHioAioAgoAm8FgYCIoKisWv65Zqf0zS40z9rDP+4Ik4amNhkdG5fvthyWiqp6E7HevgH5fsthaWvvMusbf7/1iLDCGYGFbX7YFir1ja3C2sY/7jgqz16Vmmu8c+32o1JWWWfO9UcRUATeDQL02Gvrm2VyasrnA1W1jfLgSYFZU9zngoip6w+fFsrzgjIZGR0z9f7pyxJ5/KJYnrwskVfFFWKtW+58Vs9XLgIBEcHA0LBZuL5rdpnJ1vYu2Xn4mFmcvrisWtZsOSzDs72Dmdev5add4ZL35JU0NLfJN5sOSf/gsBeJzXujzfrEbR1d8vXGQ8J6yFbYfijO9Aysc90rAoqAOwKvHX+/dv7huM4pqlgEra82HJAPP14vdvXujTsPZdvBODl+6ooR8rLuPvK+ITvvqewOTZCE0+lyNu2W6fn3DQwaVS8qXZai/XZziGkTvA/pwapAICAicKYoM/uh3JotKPcfvTRrGCPhm/D6tSlQOQ+fCySxaW+UTE7OSR4UqBvZ+VJRUy/rd4XL2PicPeFARJKgdlpswP7Q3N4rDa1d0tjWrZtiEDRloKW9R+pbe+RZVafZN7f3LJj2pvYeqWnskKjEixISc1o+/3G/PC2olK6+YXlZUiN/+3q75D0tEmpxVu5T+Z81u6SirkWeFFTIZ2v3yfOiapmYFhkanZCWjl5p7uiV/qExGRqdlN6BEVm3M0LOXrkjHT2DC8ZD6+nbb6fqWzqlu29osc2mz31LJgK6j9l5zwQDMSE3/4VsORBjVD2cI3UgWdx9+FyKSqs8RGDrgkIEmTn5Ul5dL+t3h/sYlgMlAqSgoZFxGRwelcHhMd0Ug6ApA519w3LoRq18FFsskbfrF10HxiempLahVb5af1DKqxtldHxSXpVUycff7ZKWdo8DSFtHjznn+vn028ZBpKGlw9zf2dMvE5PTXpxHxibkXv5L+WZTiHR29wvnWhd/2bZoYGhUxsYnfRr4xZ4siQhq6prkXv4LmZqaW7j+RVG5fL811OgNLSJYvytCch+9kLrGVlmzOUTsC9dv2RdjehMtbZ2m8GBgtsKOkHhJvXrbOtW9IqAI+EGgpmtMPogplt9EFsk/k8plcHyuTvp5xPt3c2u7fLvxkFAHCRMTE7I/7ITsC0uU9Mx7plf+p083Gp1/yoUMU78Tz6RLaMxp2XogVprbOrzv4uBI7Gk5dfGGz396sjoQCJgIKmsajaunRQLDw6OCNxEGZBr7uoYWk/LBoWFjBG5q6ZCxsQlZs/mwkf65yPlPO8Oluq7JkMkPW0ONJxLXMFyt3x3hPV8dMGosFYHlQaC0dUR+H1Ukf4gplo9PlEvn0OIlwkZsdxsPCXXUCqho7z54Jqh97z54Lj9sPyodXT1yLOWyhMaetm6TqBMX5FBUsvecev/Jd7u9pOK9oAerAoGAiKCzu1dOX8qU1vZOGR4ZNQbetOt3jfcPqT1+Ks1IBROTk3LxWrYxOFkoJJ/PkAORJ40H0dVb9yUmKVUswxb2gD1HEozRGXVRxPHzXhWT9bzuFQFFYD4C5W0j8p/RHiL4JKlcugIggs6uHiOgdXX3zX+xiOAdhMA2PT0t1PPDMae89yWdvyaocK1wLCVNDkSctE51v8oQCIgIcB+lS0jXce/RRGMc3heeZFzISDfSBERxMPKkpFy4IQODc4aLiYlJOXcly1xjQJrlgspzGJFTr94x1xLOpJuxBqsMR42uIrAsCJS0DnuJ4J8nyqS5b/yN8cB+R88+I+u+fPjJBrl++4HX5bO2ocW4ht7MyTdeQ88LPG7d9B7o8Wdm58ujZ0Xm2qPnReZbEMnfvtomT2ddwN8YAb1hxSEQEBEQe1RCNPj4+7NRqJxhbMx/YVzwms1zyPlOPVcEFIH5CDytGzRE8MeYYvlHYpnUd3sGd86/c+4fHDyu386TY6fSzCwB7B8/LzY33Ln/ROJT0uT46SsCKdgDjh0MEkX6Lymv8V5CtZSRlSfjE4tXS3kf1oMVgUDARLAiYq2RUAQUAYPAUohAoVMEnAgoETgR0XNFYBUh4CWC2GL5W0KpYDPQoAgEioASQaCI6f2KwApCIK+q36Maii2Wvx4vleKWudH7KyiaGpUVjoASwQrPII2eIrAQAtnlvT5EUKREsBBces0PAkoEfoDRvxWB1YDA3Vki+DC2WP5yrERQFWlQBAJFQIkgUMT0fkVgBSFwp8zTIzBEEF8ij2vnRuivoGhqVFY4AkoEKzyDNHqKwEIIpL/qMqohiwge1SgRLISXXnNHQInAHRf9VxFYFQhYRPBRXLGZeC6n3H2U8KpIjEZy2RBQIlg26PXDisDPR8BOBPQKUBVpUAQCRUCJIFDE9H5FYAUhcO5ph1EN0SOACG6XKhGsoOxZNVFRIlg1WaURVQTmI3DqcfssEZTIH6KL5VqBZy2B+XfqP4qAfwSUCPxjo1cUgRWPwGkbEXwQXSyoijQoAoEioEQQKGJ6vyKwghBIzp/rEUAEV14qEayg7Fk1UXknRMCEpMxJ6jIxqetspRZabjOZWtd0rwgoAvMRiMttMaqhP8WVyO8ii4QeggZFIFAEAiaCkdExaWxpl7zHr6St01cfef/RC9l5+JjsCzshO0OOSWzSRRkc9kyCxeIW6Zm5cigqRU6ez5Ch4VFvXFnwnmlsuZZ49qrPOgbem/RAEVAE5iGgRDAPEv1jCQgETAT1Ta0SlXjBLETR0NTm88k7uU+kurZJWPmoraNbenr7vT0AswrZ0QQZHByWi9fuSHj8We8qZJczcoR1ilnyMv3mPQmNOeWzHrLPR/REEVAEvAh4iSC+RH4bWSioijQoAoEiEDARoL6hMd9xKF5q65t9vpfrWNDeujg0PGIWvi6eXcxieGRMftgWaha+mJ6ekbXbj8rLwnJzOyuZcV5SXms9rntFQBHwg0DYnSajGvpzfIn8R3ihHMv1XUzGz2P6tyLgg0DARMDTqHlQ/ziJgEWvWec0KuGCpFy4LhAAoaSiRr7ZFCIDg3NT5G7eFy1ZuY+ltb3LLKDd0zs3NJ7eAWseBxIgKN0Ug2ArAyE3G32IIN4QgZaDYCsHc+kNpNWcu3dJRIDUzprFTiI4cSZd7j58LlW1jXL28i05FJlsVDxPX5bIxj2RZm1i69O7QxPM+qcV1fWyfle4Wf7Susai2KiSFhtmZl5LU3uv1Ld0SUNrt26KwXtfBhrbuqWprVt2X62WD2KKhR7BbyOLJORGrXR09kijloH3vgw427q65k7p7lva7LNvlQiwC1ieQixI/9OucGlobpdXRRUeIpia8rbtFhGwDurPJQK+OTw6LkMjY7opBkFRBoZHx4RtX0adt0eAjSAks0FGRsfNNa0PQdYeDI/J2BLXjX6rRID3z4zFBCKy50iCPCsolbrGVvl283zV0K17j6WlvdOjGuqzq4biJPXqHS9p6IEioAi4I7Dz2hwR/CaiUMLu+Nrt3J/SfxUBXwSWRAQYeFHf1De2et+GB9G2g3HS3Nph/sOOsGlvlJRV1gmqpO+2hJpjLo6OjpveQk19i0xNT8vabUekoLjSPEdPYsPuCLEMy94P6IEioAjMQ2DHVV8iCM1qnHeP/qEIvAmBgIkAqb+jq0e+3nhICkurZHpmxnyjpa3TePtU1jQaW0Bm9kPZuj/Wq/s/ffGG7As/IYxDSLtxV+KSL3njdiH9tuwKPS7DI6OScTvPuKei99egCCgCCyNgJwJsBPtvNHjVsws/qVcVgTkEAiYCJHVUPl+uPyDbD8WbgWXW66rrmiTh9BXZcyRRIhMuSFvH3HD3yakpuZSRLYeikiUl9YaPBxG9hys37plrJ89fk76BpRk8rHjoXhEIFgR+ulhjsxEUyQElgmDJ+reazoCJgB4B6hwCKiKrR2DFCjcm1Dv+wpTNYOy8Z2rK817n/3quCCgC7gj8cKHaSwS/iyqS3Rn1MjWtvWl3tPRffwgETAT+XqT/KwKKwC+PwFobEfw+qki2XamVsUmPuvaXj41+cbUioESwWnNO4x30CEzPvJYfzld5ewRKBEFfJJYMgBLBkqHTBxWB5UVgZGJGvj1bKR9EF5kBZRDBxss1MjSuKtblzZnV93UlgtWXZxpjRcAg4CSC/4wuknWp1dI/6t9Gp9ApAm4IKBG4oaL/KQKrAAElglWQSaskikoEqySjNJqKgBOBnuFJ+fJ0hfxhdq4h5hxac65SuocnnbfquSKwIAJKBAvCoxcVgZWLQMfghPzr1BwRQAhfn6mUzkElgpWbayszZkoEKzNfNFaKwBsR6HIhgm/OVEqXEsEbsdMbfBFQIvDFQ88UgVWDQFv/uHyeMtcj+GNssTlv7Z9YNWnQiK4MBJQIVkY+aCwUgYARqOsek09OlssfZ20EEME/k8qlqXc84HfpA8GNgBJBcOe/pn4VI+BGBB8rEaziHF2+qCsRLB/2+mVF4GchUNfl2yP4MLZY/ppQKrVdYz/rvfpw8CGgRBB8ea4pfk8QKGsbln8klgkqIZaq/CiuWP5yrESqO0ffkxRqMn4pBN4JESx1hlGdffSXynb9zvuAQHHrsPxdieB9yMplT0PARMDiMbUNLZLz4JmwRrE9TExOCovMsGj9yfMZZqEZ6zrkcCkjx6w5kHjmqt/1CI6fSpPefl2PwMJN94qAPwRKHUTwp/gSM+8Q/2tQBAJBIGAiqG9qk+gTqfK3r7YJy1PaQ9LZqxISlWKWojx/JUsiE857L5++lCn7wqwVynLkSOxpYW0DAusT7zp8zLNCWVaeIZJJXZvAi50eKAJuCBQ0DRmbALYBVEMQARPPlbQoEbjhpf/5RyBgImDhmeHhUdkZckxq6+cWyu7tH5A1m0Okpq7JfK1/cEi+33LYrGE8Pj5h1iwuraw111iu8odtR6SmvllYncy+ZjG9irXbj0pRWbX/WOsVRUARkKd1g8YmoESgheHnIhAwEfDB6alpI93bieBlUYVp7GnkCRDG+l0Rcv/xS6lvapVvN4f4qIO27IuRrHuPpbW9U77ZeEh6+ga8adkREi8Xr93xni/mYOb1a9FNMQiWMkD9elI74EoEj2sHTP0LFiw0nXP1nnKxlLAkIpiYmJS9RxN9egS5+S9ky/4Yr7qHCG07GCd3Hz6XotIq2bQ3Sli32Aq7QxMkMztfyqvrZf2ucO8i91w/EJEk59JuWbe+cc9C903tPVLf0iUNrbopBu9/Gejo7JbrL1oMEXwUV2JUQ6iHmHjuwqMmY7/TcvD+lwN7Htc1d0pX79Lsq2+NCO7nv/RPBGXVHiKwrWVsEUHFWyACSHBkbEKGR8dlRDfFIAjKwNj4hNwu7pIP44rFTgSsSZD6tF3Gxia0HARBObC3d7R/4xNzwvYbJWjbDW+NCF4Woxo6LCMjc6qhn3aGz6qG2uTbTb6qoc17o2dVQ10e1VDvnGpo+6G4gFVDtjTpoSIQFAjcq+w3YwicRHD6cUdQpF8T+fYQWBIRzEzPyIGIk9LQ2OqNSd/AoKzZfFiqahrNf5yv2xkmre1dMj4xKd9vDZXi8hpzDbJAHVTX2CrT0zPGOPyysNxcQ+20YXeklFXWed+tB4qAIjAfgXsVfa5EEHO3Zf7N+o8isAACARMBXj4tbZ3yr5/2y4vCch+9f8qF63Iw8qQMDg3Lmcs3zVgC69vo/PccTTAG49Rrd4TxAla4nJEjGIj7B4bkSuY9iUm6ZIxd1nXdKwKKwHwEbpf1mkVpnD2CQzc9wtj8J/QfRcAdgYCJoLisRvYcSTCqnh2H4iXv0Svvm61BY5ABA8ssDyJugEDSM3PNGAFIAhdUKzCeIGN2/EBK6g0ZHBqxLuleEVAE/CBwvahbfhdVJH+yGYuxEWxL1960H8j0bz8IBEwEeAPZHZTc3JXc/rO+v9Rr1vO6VwQUAQ8C/ohg7YVqWaIXoUIbpAgETARBipMmWxFYcQhABL+NnOsRMOHcB9FFZrnKofHpFRdfjdDKRUCJYOXmjcZMEVgQgeSH7fKbiEIz6+gXKRXyWXK5mWKC485BXaVsQfD0og8CSgQ+cOiJIrA6EJiYei27rtXJ7yKL5C/xJXIkq0m+P19lbAYfJ5VJbdecDW51pEhjuZwIKBEsJ/r6bUVgiQiwQD09AFRBf0sok5slPfLTxWpDDH9PKJVinXhuicgG52NKBMGZ75rqVY5AUfOQWav4DzHF8nlyuTT0jMm29Fr5bWShmXbicd3SphpY5bBo9JeIgBLBEoHTxxSB5UTgyssuM68Q007vvFonoxMzsiej3tgMWMw+u6xvOaOn315lCCgRrLIM0+gqAiBw+FaTMQxjLD750LMuSMitRvl1RKGxE1wr9F00SlFTBBZCQIlgIXT0miKwAhGYmJqRdanVhghQBeWUe6T/iOwmQwT/EV4o55/qfEMrMOtWbJSUCFZs1mjEFAF3BBp7xuTz5Aoj+f89oUzK2jwj8VPy2ww5QATHcnW+IXf09F83BJQI3FDR/xSBFYzAs/pB+Si+xBDBmrNV0jfimXo4q7RHWK2MXsLujHrBxVSDIrAYBJQIFoOS3qMIrCAE0l91e2wBkUXGQGxFrbhlSP7rWKkw39DXZ6qkd3hpc9Nb79N98CCgRBA8ea0pfU8QYJpppH4a/KSH7d5U9QxNyj9PlBtvIiaiq+v2rA3ivUEPFAE/CCgR+AFG/1YEViIC41MzsvFyjbEF4CZ6v6rfG83xyRlZd6HaEARLVubXzC325L1JDxQBFwTeOhGwCM34+IRZg5hj52yjY2PjLtHw/MXyexoUAUXAPwL13WPy1+OlZh2Cv8SXSoNN6mfG0cO3Gg1JfBBdLBefd/p/kV5RBGwIvFUiyHnwTFhmkgVoth+Kl+gTqTI47PFoYOWxc1eyzHoEx1LSpLdvbuTj5OSUpF69Y67FnrwkXT06GMaWR3qoCHgRuPiiU2jkGUi2Oa1WxiZnvNc4SH7YZtRGXA+/0+RzTU8UAX8IvFUiyM57Ks2tHWaFMlYbGx6Zm/gq+XyGHIg8KRDC1Vu5EhKVYpapJGJm9bIjCaYncTMnX/aHJ8mEbaF7f5HX/xWBYEJgcvq1bE+vM1NPM5DswrP5YwWySnrk1+Ee+8H6izXqORRMBeRnpPWtEkFu/gtBuneGgcEhWbPlsJRX15tLo2Pj8sO2I1JV2yRTU9Pyw9ZQKSqtNtcmp6bkxx1HpaCkyvkaPVcEghqB6s5R+XtimfxnlGeiufL2+Sv5lbeNyH8fLzWT0TEr6cvGoaDGTBO/OATeKhHQI4AMjsadkfiUNOnp8xirisur5dvNIT5LUG7ZHyO37j0y6x9/synEey/R3nk43qiKFpcEz10zM69lemZGWPZSN8Xg/SsDryXtZaeZS+j30UWy4RLS/vS8sj4xOW16DaiG6DVE322evef1vHvfP4yCu9yb9m+JS9O9VSI4cfaqPHhSYBr3KzfuyZ4jiaaH8PRlsWzcE+mz0P3u0ATJzMmX8uo6Wb87XMYn5gzFByKSjLposUQACTS29Uhdc6fUt3Tpphi8V2Wgqa1bapu7ZX1qpXEN/c/oYonPrpPW9h5pcOR1e0ePnH3YaOwIf4wtkY9PlMmLqg5pbe9+rzDRej6/natt6pCu3jnb62LbT+57q0TQO9sD4MVT09OyYXeE1DW2SkFxpYcIbGojiOBGdr5UVNfL+l3hxsvIinigRAAJjo5PysjYhIzqphi8Z2UAb7qylkGvt9Cf40ukpHnQ2NSc5Z17W3tH5V8pFcaziJ7B8XtNxjbnvFfP36/2YmRsfMm21bdKBKPj44YArAZ9z5EEefaqVBqa2uSbTYekf3DYuiSb9kbJ7dwn0tbRJV9vPCTdvXP+0NsOxsqljGzvvXqgCAQ7AhdfdBnbAAPJtqTVysT0wtNHnH3SYbyHPogpks+SK6RtYDLYIdT0L4DAWyOC2oYWWb87wngN8T2MvqiDKqobZGpqSr7fekQKyzwG4OHhUVm/K0Lqm9qM3hLj8PNXZSaajEHYsDtSyqs8huUF4q6XFIGgQGBgbFq+OansEvQAACAASURBVFPpJYJUF28hJxAdAxPyRXKFUSVhK0h72eW8Rc8VAS8Cb40I2jt7ZOOeKCkpr5GBwWFJu3FXdh0+brqkfI1xArtDjxvJn/EEiWfTvZFIz7xnxh909/TJpYwciU9OkyXaPLzv1ANF4H1AoLV/QkJvNZrRwn+ILjKzjnYOLU66P/O4wyxdyVQUay9Uy9S075iD9wEfTcPbQeCtEQHRaWrtkBPnrgkqIbyG7DYDDLrX7zww4wcupN8WXEitwOjjmzmPJCQ6Rc6m3ZKRUZ0jxcJG98GLAD0BxgL8R3iBMHcQ00ufC2CdgcaecbOeMctZ/jG2WK4XdsvCCqXgxTrYU/5WiSDYwdT0KwJvE4HCpiEzgvijuGJj+GVq6aHx6UV/YnrmtRzMbDQE8mFciXwYVyxx91qEOYk0KAJ2BJQI7GjosSKwghC4jIE4ushsjBtgXeJAAwPK/hxfatYusNYqOHSzQZp653rkgb5T73//EFAieP/yVFP0niDAGsS4f+IplDS7LvFSklbcMiybLtfK7yIL5aO4EvlNZKF8erJcSlvnvPiW8l595v1BQIng/clLTcl7hADrEn9/rspLBHcrft5EjKxitvd6g+kZYG/497ACM1PpjHplvEelZulJUSJYOnb6pCLwzhAoah6SfyR6VhtjfqEKl3mFAv346OSMMTZbxuO/HS+Vlj5VEQWK4/t4vxLB+5irmqZVjcCD6gH58nSFWX8Y1RA9g6GxxRuJF0q86WmcrzaT0jGddWhWo/QML84ddaH36rXVjYASwerOP439e4YAKqA/xZcYAzEun//vaIHx9HmbycQF9d/CCgRvpN9FFpkVz3pH5s8a/Da/qe9a2QgoEazs/NHYBREC2eW98pdjJcZVlInlUA2df9oh/aNvt5HuHpr0LneJWykjj2PvNesgziAqa86kKhE4EdFzReAXRoCxARHZzUYVRC+A9Qb+h1lDG5Y2k+Rioj8yPi2R2c3GGI1bKXaDg5kNAkloCD4ElAiCL881xSsMgdOP2o0XDw0y0jkk8EssKDMyMWPWNWDEMt/+9/BCCb3VJDM6/HiFlZB3Hx0lgnePsX5BEfCLQPvAhHx6ssIYb+kNsA4xfv+/VGAair0Z9WYKCr6P3aDkF/z+L5VO/c7CCCgRLIyPXlUE3ioCSNsjE9Nm0fkndQOy6XKNIQFUM1+drhTmF/qlw/jUjPyUWu0xUMcUy7dnK+VYbquOPv6lM2IZv6dEsIzg66eDC4FXjUNGD89Ectuu1Pp4B/1HRKFcK+xeNkDuVfTJbyOLjK3gg5hi+XVEoXx9plKqOkaXLU764V8OASWCXw5r/VIQITA8Pu0zuRsum6hdsAFY8wdZc/8w7UP8/RaZfMNiM+8SvqmZ13LqUbv817ESQwIfxZaYnsonJ8vNQjjxuS1SqaTwLrNgWd+9oohgaHhUmJJagyKwmhFAuv4xtVp2XqsTjuNzW+UPMR5p+48xxYYILEI4eLNBCpqGVkxymX/o2P0W+Si22HgUobL6XVSRGW/w14RS42l04WmHPK0bFGY31fB+ILAiiGBiYtIsVn8oKkWiT6RKR1fP+4GupiJoEOgampSS1mG58qrLqHxQszAqGKmfHoAl/a9LrZbk/HbZcbVO0l52ykqd6yezuEe+PFVhegd4FX0QXWQMyhAY5/Rudl6tk/zqAWNchkBYFY1eTUvfhLGBBE3mvwcJXRFEcPpipuwLS5SpqWmzjvHeo4nelc3eA4w1CasUARq1sckZvxv689OP2yU6p1nWnK0yDT6NP40kHjg0/pZk/fvoItl4qUaaelfPokudQxPCSOcbRd2y+XKtsR9gO2A2VHoKkAPpZYPsMHbvulYnnyaXy74bDZJV2iMnH7ZJ7L0WM3vqs/pBHywxUluBqS/s59b/1l77HhYS72a/7EQwNDwi328NleKyGpNCyIA1jF8VV7ybFAf41sGxaaloH12wkAb4yoBvb+4bF9z80DvT+Cw00pTKRHyJN4FnGJj0vH7QzCnDvDLPGwblUc2APK71bI9qB4zLopuOmsnOuJcNt0JLHdA5OCG1XXON2vTr1+Y672x0zHXPxGb13XP31naNCt9c6kRqpBF1CuoJ3C/Bo7pz1KQVnIgD8S1qHjaTqhU2D/uk10r3QvuLzzuNeuez5HL5IqXCdWMyOCR/S2KmcbRUKUzzzHWmcPjpYo3cLO6RianV25xNTL+WnPI+OXq7SfbfaJD/Pl7qVR1Z6WbuItRInEMMkCE9CMYnsMf+YGH5eXK5fH26QqLvNhvbxHfnqoxxOjGv1VsuyZ8H1f1msB3Ekl8zIM294/Ky0bf8LpSP9muUCeoCM7ESIHnKEf/b7wv0+OcY1NsGqEdzBnnKr7P+ENeBsSlTryFMfwE7z1LDshMBi9t/uylEevvnRlHuPHxMUtNvB5QmRkRi0Dp4s9FMpMVkWm9jW5daI+hGt6TVvpX3BRon0kPlQcrC24TG5ccL1X7jQjyJL/HmWzxDpURq+/58lXdqYxovpDtrY36brVd807gno968i3vZ/hxfItvT68x7cTH854ly2Xu93pyj6uA67/ssuUIOzeYD+y9OVcjHJ8vlQGaD2f55oszcRzz5RqCYkEYaGSRTPFtYj/cfiWWy4WKNwYk4EF8kc76NZO5Mr5Vuf3saeCRePGj8bR59f7H8hntjioV0fZ5cJtE5TVLdMSJlrTQy/dLnndTttUxPz6y+bYbGZ66Ref2aBnRQDtyol0+SyuSzk2XyaVKZJ09M74DxCCUGd4gBfH4fVSzgBUl48Yz22CEgS4P1LJHY8wQCoeySH7zz8xTPmItA89MqE9SFtec99Yc1GihHS3mXPY7USaseBFKWQ242ml4U5YbnqSsIHmyM8ra/C5uTaYccddS6h/v3Xa+X3pGljQxfdiJ4UVAmP+0Kl/GJuQQciEgyNoPFMsHE5KQ8q2yXP8UVy/86/Er+79GCt7ZRSCjMSDVv872LfReTjlGRLMmTuOBq6O954mnumY0v8WfeGqQ1q/By7K2MsxXz99GekaX29/5bmOdd1r3cw3/c8+uIIvOd/xfmwZr/uc69xNX+Hiv+pIWN+HEfe+t99vvfdEwaTZpikDg9eFhpNg34bJq4h29b91rpeCv7aI/6Z0NqpRy9WStJufVSUNMhNU1d0tzeIx1dvdLZ1Ss9PX3S2tEjDa3d783W1NZt0tbY2i1VjZ0mzaV1HZJ8v0GO3KyVAxk1Zo1l5k3ac7Vaom7Xyc4r1UZQWGpeeHoZnrK11HeQ7zxLPaCM2cvRzykTlD2rHryp7DqvUz7tz1N+2agn9nvf1A79nyMF8r9DX0lSXrO8NsS92NbTc9+yE8HLogr5aWe4jI1PeGMeKBF09w1IRX273C9plZzCFrlb1KqbYvBOy0BOUavcK26VioZO6e7ukY7OHmlu65bG1i5paOmSuub3fGvpkobWLmlq65Km1i6T9vaOboMD/1MXH5S2Gjx6e3qkvqVL8kz91Lr5rtqnO4UtklfS4tOWehvVNxwsOxHU1DXJ1xsOSndPvzeq2w7GyuWMHO/5mw66+walrrlD2jq6pb2zWyiQuikGv0QZQDqmkdNtDgPIkLrIxnFdS5fZm/qpdfPdtU2d3YaYadQDDctOBOPjE7JuZ5g8eVFi4j42Ni4b9kRKZU3jotMCEdQ0dZgCR6HTTTHQMqBlIBjLQE1zp6xKIqC1v56VJ9sOxBoJ4kL6bUk4nb5oEuBGT4+g03RV6ZbqphhoGdAyEIxlAPJbtURAY37n/lM5HHNKIAJ6BYGEmZkZmZqelqlp9ropBloGtAwEbxlYyuwMy64aCqTB13sVAUVAEVAE3j4CSgRvH1N9oyKgCCgCqwoBJYJVlV0aWUVAEVAE3j4Cq54IGls6zPxE128/ELbbuU+kvfPNk9ahR2tsaZemlnbBxmCFkZExqaptkq6ePuuvRe8raxpkemZGRkbHhGO3wHexZ1ihoKRKrt26LxlZ96W43DPNhnXNbd/Z3Ss1Dc3mG9Z1pufA64rpOt4UcOHLzns2+808uXHnoVTVvtlDa3BoRGrqm6XPNgKcb7V2dEltY+C+y30DQ1Lf2Gqiy3t7+gZcow5Wls6TZ7AlXb2VK3dyn0ivn2esF5Gvjc1tAmZWGBwekfxnRVLb0GL9teC+pLxGMu88NDhl3M6Th08LfbD39zBuzK1tXT6XsX1V1zVJd++cq7TPDQucUJ4mJ6dkcmpKyirrFrhz7lJ5Vb0Q54ysPCkqq5674OeIvK1vahU8+axQWdtoytbwyNw0CNY15578uP/opVy/Tbl6IJnZD6W6tsl527zz8YkJaWhqk4Eh35XZcP8ln5iUMpBA/bPKNM8vti43tXZ48jnrvjx5WeItd27fZpx1U0uHT1szOjYuj58Xe7/t9pz9P/InMzvfYEU+gR317E2BgYrNrZ22sd5iBuRW1zf5lPU3vcd+fdUSAQXz5LkM+WHbEfluc6hs3hctW/fHyA9bj5gBaoln0v02jBQUZjnduDdadoUel6SzV81IUIChstEgM/EdGeUMDHyrrW82jRiVury63jT6pRW1sudIguQ9eSWXr+fIibNXnY/K4NCw7A87IZev3zXTDKSk3jDxx0h+ODpFNuyOlKu37vsQk/0lLwrLZfeRBIlKvCAXr2VLZ3efnDibLlsPxMjhmNMScey89PS6N6ikiwZ0075oWbs9TLbuj5Udh+Jlw+4I2bgn0uDR2u7bcFnf5rtgtT0kXg5EnJR7+c9N/LnePzAk59JuyrGUNNeKwwhbcKLRxyW4vLrBEAoYHYk7I2VVdXIoMlnKq+Y3bg+fFJi4kc6G5jbZvC9Gth2Kk/Dj52Tn4XjZG3ZCGprbrWj67EnvsZTLsj88yeD1qrhSKqrrZd2ucNkXniQ7Q+Il6+5j1zjzIoSEkOhTsmbzYflx+1HZsj9GNu2Lku82HzbHNHJ2AcL6OI1aXPIlWbsjTDbtjZa4pEvexoI4gcHOkGNSWFJlPeLdM88WDSINEg0YjZm1UR7v57+QW3cfSVRiqvcZ64DvHoxIlpPnrpk0nUu7Zcbn7I9IEmb1XbcjTM6n33aNM+8oragx2B6JOy0pqdelp7dfKJ/rd0fIwciTJt+7ut2FI6bNoEFbvzvSTBezaW+UKZN8c+22oxIac8o0mlZc7XvqDTMLrN8VIbsOHzfpm54VlPoHh8x4oqNxZ1zzCeGhrrHVCHOUMQsrMNoXfsLU34ORyVJYOh9rvnHi3FU5GHHSRCcn75nBi/bgSOxpk+7Yk5eEWQucAeHk5IUM2XM0USKPnzdEiTC0cU+UaTdIh6cez03LYX8Hgw/D4s/Kd1tCDT6ULdovzsEuPfOeIXz7MxwjBCSduyZrtx81LvaRCRe8uBIn4kAbBBkFGlYlESAhnrl804DilFABAMkx+UKGnDyf4VqAcvNfSMTx89LZ02eku0fPiuRSRo60tHV68YtNuugKKFJ3aPQp+a8vt5iG7MylTBOPhNNX5MsNB00G03jEnbzkfZd1cO/Bc4lKPC/1TW2m4TsQnuQjrZCWhDPprgV3YHDYpImGhEKMZL8/4qRpVLp6+810xvSG6BW5hdu5j01jj8Q3PTVtGgQaMrb+gUFJv5krMScuCmtC2ANSTsSxc5Lz8JmRzMAo/cY9uZf/wpAm95ZV1kpY3Bkze6z9WY6RrD77YY98uzlEUi5cN2lgv+dIovyw7ahEJ6bKJ9/vNmRhf3Z0bMw0eDdzHhlpB2KngliNL2Xg6atSQ+JulZXKcOla9uy8PtNG2vps7V65c/+J+QykzDtb2+fy3Pp+38Cg0PhAFFNTngnKrGvsaaQh7/uPXtn/NsdPX5YYAqGRomFnCpVzV7JMA2/dzHdzH76wTr17JHG+++EnGyQkOsU0yBAs93+5/oD55vdbQiU05rT3Gesg/3mhhB07Z3BsbG43jap9/i4wohEhfs6AxE1doSEFX+JO441gYvVe6An5G+SJJEu8KVvOwHdpmGlcBwZ9JX7KcWTCedOLpyEjvldv5ppzSJOAcAIRgaUz0MB/8t1u+WLdPpM2cGKD/L/eeEhiky7JX7/a6tqDqqlvMhgXlFQKQuXu0OPzymDajbumh+D8LhNinrt8SyYmp0xdpIx/8eM+08vm3tHRcRMfyokzUL+iEs7Ltaw8n2l1rPsQQCCJrHuPrb+8e3p1CGIIV+CBMHH28i0jWFk30R4hpAQaViURTE5OSkTCeaOG8ZdgGoqwY2e9jZX9PlQxxY6uMgUeqaBltjtPxXj2qtT+mPeYAo1EDiNTeQgTU1OzDUuXmUk19eod7/3WQd7jl5L32NN4lFbWmZ6Ddc3ap13PMfGwzq19XWOLJNrGV9CrQXrgPVZAkkw6f03EZXEfxmagglkoQH5I3vbQ0d0jFC5noFDmPys0DS3SPs+6VVYaltLKWgk/ds405BbRPC8skwvpWaYiQepOVRrpQ6plTzh/JUvqG30rFo05vSM3tcW5tCx5XlDmjfbNnIdyKCrZe87BxWt35GVRuc9/nNATdOvR2W9EkqWMOMPNnHwhbfYwNDIq2XlPhQaacCr1hjyYLQf2+zgmvVdv3jdlt6puTmVHI446gPxBUncGSJFvEMgPtzy7leNRQzifRdKPSbro/Rs5dsv+aKEXZQWElPiUy9apz54etVUPfC7YTiA0Z/kjrUnn5mNILzE3/6UpT6h1IBm3ssXrEaqoh5cysmV4xFNWKEv0agiQcEnFfJUr9SltdvYChB0EMGeAaJIveN5jv3blxj1vPeZ/6jREYg+0MQ+eFtj/MscNza0Sl+yOo3UzvcJjp65Yp9793YfP55UbNBR3Hzz3Yku740Yi3pf4OViVREAjj3RCt48CSIGamXltpBmO6S7SxWVMgkubaCTum9n50tLuqVgWNjTwgFjb0DwrPbkTgXU/3dFL13Pk0fMio1c9e/mmtHV0GfJx00uitkFtQAPa1tkjSBwvisrN3CD0NLLvP5MdIfGukhVEFXMi1aR3bGxCTpy9ZrrUbTZ1Ts6DZ3LhqvusrUhtqBdoMEgn0ifqBL6LFJJ4Nl2OJafJ2LjvGA7Or928bwgHfXtf/5zqCRUa78XO4Y8ILKzQj999+EKuZOYa1QcN6eXr2eYyagh6APZAY0TPDQKrb24zjRL3o+9HgoX06KlQ4cl7Z6BRPHPppkkP6ftqwwHT8FtqB9JPD8hNaoNY6OFAqhAhEyJS5miMwAupmhlyn73ybfCJAyRCI8CUKTTaPEfA9kTvhjJDI+2PCKx00JhTfu89fGF6JTRoEAnxR1XmDJBiTFKqaZRY2Ik4PCsoM8/S0FHmEBywfzkDdQZCrahpMOWCmX+/2XjIp4dMmt0aRd717GWpbD8UZ3rQ4IOqiHTTSHV19xriQxDgO/aAPY14IsxgD7CrNWnM6cVSF5GQ/REB7+NbNMap6XfM/ZTTM5c9wgvvdH6XZ8hTyg7qUsofdQdBEPULZYPyiar5oUtjzn8QM7i2dXYblQ7YWHEkjyBNu5BmpZv6RLmLT0kzbQXfMmVrmrI1aqbfh1QsgdF6jn1tfYtcybxrtAiQhdU75h1ghZoazUbQEAGg0HU8ce6arNkcYrplX/6033QRUUN8szHENGxW99IOJscU1IxbebJmy2FTAazKyrX+/kG5fe+xaZBfFb15TQQa08cviuV61gPT0La0dTg/53OOETHx7FWjE2SOpd/+ba18/N0uExd0jAvp95igD5UBG5WDSk3jguR84sxV839Ti/v3SSPdbqPH3RwiazYdMvrcr9YfkO+3HZGIxPOuDQyRpwFCn496osChb8VweexUmmmUrYLpk2DHCY0yFQ6pyJLaHLd4T2ngacDQ6aOm+MsXm+SPn2yQrzYcNGtYYOfBRuEWqJQnz18zagXmrqJyMOX5qYs3jFoR3TDSk5ugwPuMSiLipNEb0+3/F+Xrx71GzbVuZ7jcuju/685z4IzkzdTq+8OSzLkVPxqOnAfPjf788fMi62+/e9JA2aKrv+vwMVcBwf4wOnXSjA75m40H5d/+8q3817+2mLjz330/vRDeUVJRK9gTzBaeZAjyVs4jYdEo1C3ont1I0/o+cfxxe5j8a91+8dTF/fLpD3vMMbYWfw4cEEBY/Bn5n293mrRa72NPfqHHPxCR5G307NedxwgJqP6ILwLXmwJEha3qp10Rpjz9+r+/l48+3WjaEdS7HlXkfCGDck6dOxB50thVIDMI/vSlTEEYpH5Szuztij0u3T19RlWG+mqubO2Tz9buMXnH++Z/1fOGuw+eGbsiZdrevnGc9+iVIWRILdCwKnsE9kQiCdFAUtHRkWPY9Nc42J8jk+g52D1KrOs07nQnkW4WG2g40PvaM2ehZ2lckbKIM7pojKUQ1JsCFYquM1IAwXjBPC8yhOCWFuf7kHbRcfJdJO6i0mqftSCc91vnSCsUdjd9fFNru+CxsNhAA49KBql3MYFv1jW0SEFxpeQ9LpCHzwqlocXdSOx8H8/RA7IC+lV01v7UftZ91h7JnsYYlQ9dcCTFxQS8qSz9uvN+VGX2ODmvO8/xxsl/WrjoWSUpI9SD+7OqSHopVk/I+W77OfWGxtdehlEPQdx4qiwmIMnTG7sJxgVl87zM3N5BD89un7PfQ5l+k9rJfj/H2NFIx2IDai9sBfRuKRvk92LyhzpsX1aXngg2OrtKcqE4UBatsgXGCHb0SN4UyF/7d+330zb02nrt9msLHa96Ilgoce/yGgUF6Rupwh6a2zqMNEm3N5BABjr184t9vsPmHhlIpeGbD568MmoKfwWLgomLrdXtXWyc7PdhVOMddMGtgCqIRqa51b0HY93Hnnsw6D99UWwqGbryxQYIH10v7qbZ95+aLvdiCJP3o1Kwqyusbza3dfqVcK17nHtwJL2otJYScA7AoMp7cOl0BsqbmwSKXr6sqn5Rbon2dyIEoZ548KRgUeTH2ss0UHYSIU5g376INchRdyGYoAe/93BO522Pk79jelqQjsnjvKdGnbNUnP19w+1/hCo3wgCHxbiBOt8JGZKHCD5u9XgGQdHRVSAOL4srFi0AO79pnSsRWEg49oDrrytMYUWNs/1QvByNP+Pjo93a0S2xJy/Klcx7jjd6TpHsdoQcM88i3SLt4Tnx9cYQ+W7LYSNRuFXoyalpQzwUFtQr6AuJH9vhmBSjf6eh49tuAckYN1MkWho4vF5YBwK3VfTdXHPzNUdKRC2A8ZVn3XoEbt+z/hsZGzOupSFRKcadkwLOd3CZw8bDu2nk3QLY4MKHWgTXuj9/ukk+XbtHUM2AIQbFhUL+8yLZsj/WqLRwAcVVlmVR6fbjFUOP0F9AqkWd8tPOCNPVt/S95A2NMl5n/vIYDxvcAXF35ZjGArzxjkIdyNgNt0BDT88SSRHyQw9sbaiywIleSfSJ+XlMDwdp1gp5j16aWX2ZyReX4e+3HjGeYW5li2dy8p6aOCPYkEeWiyIGdsoJeYU3nlugd4qNYX/4CeOZRs+RPCafyN/tB+ON95jbs0jjuANvPRBr7Dh//Pgnoyo1broHYlwNrvb3oK+nLH350wHj5mvlMeUFT6UGF08m+/MLHZPPjDlxBgQbjMs/7ggz7QB2LEtgoHdDWcENlZ6fMyBQ+cvjfWEnTA+Bske5dwbGCqG2tgKee7joojbF/kMeG7WSP32n9aDLPiiJAKmKRgZ9PQ0rGWNtZD6Vj4rn5mqHNEmlePKqVEZGx42aBqPeC9say1SqBBerP4Nrth+MkxvZD4yBGQMr+sS7D56angVeMRjVquvme/dQQaMSUuWvX2417ol4nlAA8SRC10iFZXwA73ML3I+XCy56mXceGOOupfpC54mhKf7kpXmDtDD2YY+gq00jhEsmaiXwokJYwV/Zo7uddv2ukZAgFVQs6PghLVREeH1g+HYa12kU8QTB+EVDSmOT96TAqClw70QVuPVgnDx54e4zTVcfVzsaJPLbCjSEYIkumXx0U98QFwzrhaXVxiBI2k9fummM4tZ77j58JrgMOwONIJWSCkvFjUy8YL6DtAuJ0sBDQqTbGYgXjdefP99kiAODJA0CHjf/WrfP5DG2Bzf30Tu5T73GXMowBkeMv+CIyhGBgfEE9A6cYRCiik4x2CLFk9/kj0UalA+kdIzvbgHBCH06BlgkVMYUfP7jPtOjII9xoDh++so8lS3fwhsMQiV/uZceCA3c6OiY3Lr3yIwjwcHBLWDDI4/xALS7+Zo8Hhs3ZYQxKtR1Z+Aeyj/XqNP2jTJPw25sby7jgXAXxaWVXjSuogh3Z9OyfNRbGIvR2TsDThOHo0+ZPKYcJJ27avIY4zFusNRjDPV4SjlD1l1sNh6PMdqt3aEJUllr5fG08RwiveR7oCEoiYDM33Ywzgz4CY09bRpPGlA2KhnM/KfPNvpxLayb509NQ4PnEN1gAo2TmyH0WtZ9ybo3J7UhrRyMSvbx1EGqo2K5BRpE3FaPxp01xj0WkvcYRTOkqqbB6EZPGbc5R/8RV8mMbO/gk+t3Hrg2oIx9cOrtqRSxJ1K9nheoZajo4Ia0x0AgjIN4tbgF4sM4Ayvg2YE0bQ/4Qjulp4HBITl+6opPBecZjHAY2wjo4SE3bDrOQAPz3E8DYt3Lu7AvOQMDz5w+8zSmSPeQAwEjNmNVnCH95j3jgWL9T4XdF5boY5S+kf3Qr+EWmxdG7KPxZwVfdwKNFu6s6KRR9bi5rebkPTe9Nu6nLKTMNhhWPNhDRhCxM1CuMApbAdz7+32lfxrGyETffLPuh7Dsqgzcgukh2ANjRyBJe4A03CRfjL0YvgmQMs4VkIQznE275Zp/9vvw5kEocAYw5b1frNtvejL0ZuwbBPPRpxtcyZ4eHTYYe0DIYdQ7AhKB70IQbgG8ER4hXHr2BFRrCHYICmAJXs4A2fMcoaKqzhinnffQdmBzDDQEJREgPTAic/5pPgAACotJREFUl8xESkPHaG1IZUj6SNpuBkUaoSvX75oMwx6A5EJAf0c38kVRhZGE3DISTxEkJxpTJAkacaR/GhnUNbii4XXg5ttuz1gaA7wdMJqik7107Y4Z7cx76OW4BSRj1EYYdZmiAsmeQosRkUJ84UqWcbl1utpBBIzCRcdvD9yHzhupiYqLlOQWrt3MNRKfSWttk+kNMP2AFagUxAuDsz2QD7y3yOalRKMKAdE4QL70bDinO+4MuLYygpc8IW+p+ATSiyQIKSPV2QddWe/AlgHhoqJBuiYuBN6BxIra0B8RQBZ0z5EWec6Tx03mWVwHaVDpXVhCg/VN557eI2TG94yXCu6jLR0m/uignQFjIw0JREK+8iwqRAJlFBUMY1QeuYw6pREizhAjDfCLojIz7QG4IrUzEhYhCYJyC/T4eJ56xehWBu7ZBZ5hBlElXphXNim7SMIYd63AmAakYsoF2CF0IEGDgTNQNshjhDBnHqOjZ5AkEjLl2y3QK6THSb46N4gH4qQn7QyULcowcbQafu7hm3hPIUxBrP6IwHpfVU2jIW9G0PM9elxNrZ0m3W55jA0E70B7Hlu2EOojeUwv2l9dtL7rtg9KIsDiQlfQ6TNvB4jGhhG3boERfegAmd7CbrikIX5eUGoaVDefa64jLW3eHzPPxxiS+HzdPiNJ2Lu5bt/nPyqpx+PgkRlJ6RyQ5fYckhG6avTX/7Nmh/zh45/k640eV0xUCW42ERoRuqk0nJYqye3d/v6jsuBeioQLZlQ+xh0g2dDYUsn96TXp8qP/xQ4Tn5xm7ASMQ6BJJ//wXbfrxZ1x4Fu4NOIiizslbsW4gbLRgNilWOezqB22HYiTrzccMA2hdZ2GEdxpGN3Injym+752+5F5U5TQMDDSled4z5sCQgo6cMa8oAZwG7lrvQOS5L0MzmMcAOWPaQ4IGH3/8sVmST6f4TPPlfUse4gVLLcciDXjUz745zr56JMNprdHGaG3aHmq2Z/jGI8yxjCACc8jlb4qqTQSK+TBCPprt/Kcj5lzCBFbAmoSBrWh66c8EPBUQv9NA+gvoCLEnvHVevL3kNk8LqwHjO2rxkXNar2LstnTN+fAYP1v7Sn7CALOQKPN/E18j7TZDbjUEXoG2NzcVMvOd1GPcdiA8KgfCzmM0NaQryaPr942PUNGKBOYfgT3ajQRi/EQc8YjSInACUPg5+g98d5wAx19O3YGt4BkA8nY9evcRwHCi8eSPt2edfuvo7PX6EJRpSwmIDnhMorONz0z11Q6KiO6ZH8BaQnpGIljKWF0fNxIwHapv7Cs2vRKkFB5v7/Q2NJmGjQG7qFyQ3q1wkJx9t4zNW3mjkIlQm8MO4dTRWHd69yTT5CjW/zQw1oSt/M5zrFjQAr2gNQG+biVGft9zmOkZBppVClLCTy3WEP/wNCIGeRID4NxJzRqdmHH3/eR3pmgzy7JQuQQgVvP2v4eSAzSomfhVLnY7/N3TP5Qd+x5XNfg3xHA33sC/R81TpdtrXX78/QaFlsneQ7Bhjxm1oSlBPK4qq7Jp34E8h4lgkDQ0nsVAUVgxSGAqsTuEEAEIVuEMQSfhQL2JafDAMIaKhfGkCwU6CE5VamM+mciRDebhv1dqMUQNJxCBnYvhK6FAqo2p1BGenmOa0sJSgRLQU2feS8QeFlYvmBXfKFEUun8eSwt9BzXkBYXUkst9Dz6buwQSwnopJHalxJoUN28YBb7LkbM+xurstA76FXdn513yHkfahW8c9btDDPqTuxrVq+J+NK72HM0wW8e0yvGNZYN9ac1/QaNM2NFcGqw27Os79P7QQWzbke4cR9lFmTLDoHnFPm7N8x99mLegcqIWV1RiWEPYRp5K7R39Up88mVXewzqRHpYP+4IN8/jTWZNNwIRoh5GVfXcYci23r3QXolgIXT02qpFgIoxMjvgB+nJvmEQRd2Ci7DbNCI0BDgMoK6zP2cdI4EylTjGbGdAXYWUyD3W/daexgKPNWweuNW6BRow/98dMeoDxp04A1Ks/+8OGlUVHjr+xjDwXUvStOJr7Rm9jkETG4BbQLplwjdUIdYz1h49vMedNcE4NDifRxVK440qzXrG2mN8ZTT5vqOJruo03ExxiYWU+Q4urxeu3vGR8MGakfTOgDTOlO6QBXmFMwXGcqbasAJu0vaJHq3/mWMKz0JUQ3yXGQVwH7XbE8CasRzOQJqYih4nAL6Lh9qpi5k+KjGM38xS7AyMTzC2vHrPaHlsThilGdhqBexA/vLYusdtr0Tghor+t+oRwBuI9QNwb2XeePvGOgasxfD7f/zoOkUxRIBRDsOl/TmOGV9AI/DhpxuMf78TKBo1jH4YMN2e3RWaYOaX8jenFLYQ/Mmdz3LO3EXMHeTWICMdh0QlmzmrnM8SZ6b9/t3f1/oMSLLHHf06897gEux8nmmd//HtTmF+G7eAjp8pxRm45nwWrDbvizJ44WXnDKzfQXrBzPks6f38x73GKcP5HOd4zrG+hT3geUcDDpkQ6DG4eWgxRxbP2wPGeaYWt8iAxtrNa4hegnMaCTzNMGpbo6gpP25eQ4wfwe3VHpD0858Wed1cceo4firNfos5xr7lFCBYzAc7Dh5lBHoMGNADDUoEgSKm968KBGjMkcqoVFRwt421EHAFdQvM5oiqwe05Gl2MqSwC4xboKaC+cX12dlSqPzULz+Hf7vrsxKRxDWSefbfArKY0gq7PTk6a9Pibqx6cwAu997znGS1bUWv83t2+yyCp8OPnzWpk857FPXt0XI7EnvFOlWx/ByoyppGmFzTv2YlJM/COwW6oY5wBN0kmYeP79PCsgG6fOX+Q0HGpdSMCjLO4UNNLw0aASodAo4zbKOod3LPdiID3QZyki/dYgXchjWNfIC/ciIB7mP6cb9I7pCdmBVySmcLcHxGg+sGjip4fbt2WHQLhg8knGSmPwV2JwEJU94rA7AyiVFZ/gYaCiukWUFWgPvAXmFYa1YBbYCwHDZu/QOPhNFBa96IusHveWP9bexpqBpa5Bd7rLz3czxgGf4bIYVwlbVOaO9+Pyss+rbb9OqRLrwCC9BfQubthgmqoZYHv8m6Mvm7utpAD4yUYqe5Ul6E7Z+Deln3RrusREE+IhJX6cCu2T6qH+/aDJ4Wm53Xq4vyBXdgt8EBj5mNmRrW7j6J29Ix6j/VrQ4JImNaFnlB945x3Ieo9eorhx89KvMvsqTT8EBC9TQbEopKzAuTArKNMY589u/iSdW0xe+0RLAYlvUcRUARWJAJ4E6PmsevnrYgyTojGHr28vwCB4e5td0u27sVusNB8VEjodv289RwE9eRVievUFtY9GM7pZbm5EuMKi2HfX2BAKQvrOAOk+ayg1C/ZO++3nysR2NHQY0VAEVAEghABJYIgzHRNsiKgCCgCdgSUCOxo6LEioAgoAkGIgBJBEGa6JlkRUAQUATsCSgR2NPRYEVAEFIEgRECJIAgzXZOsCCgCioAdAR8iGFvAD9j+kB4rAoqAIqAIvD8I0PbXNnXKrxpae6RvcERgBt0UAy0DWga0DARPGegfHJH6lm75VVN7jzS29RhWgBl0Uwy0DGgZ0DIQHGUAEmhs6Zb/D2mPusrBXDEBAAAAAElFTkSuQmCC;" vertex="1" parent="1">
          <mxGeometry x="340" y="60" width="386" height="217" as="geometry" />
        </mxCell>
        <mxCell id="0ve0YzcXfAbjLbMnPAbi-3" value="" style="shape=image;verticalLabelPosition=bottom;labelBackgroundColor=#ffffff;verticalAlign=top;aspect=fixed;imageAspect=0;image=data:image/png,iVBORw0KGgoAAAANSUhEUgAAAYIAAADaCAYAAACrUEWnAAAgAElEQVR4Ae19Z1ccS5Zt/7X34Zl5b6a7p72b7pnpnml7/ZV0Za68RSC8B4GEERIgg4QREt5KgBDee28LCm/3WzuKzMpKqoBCSEDVibWgMjMyIyN2RJ4dcc6JiB+MTMxgcHwG3QPj8icYSBuQNiBtwIvawMDoNIbHLfjB4NgMLNZ5LC6vyJ9gIG1A2oC0AS9qAxbrAgZGLfgBRwJLK6uQIAgIAoKAIOBdCFD2kwMUEXA0IEEQEAQEAUHAuxCg7Bci8K46l9IKAoKAIOCAgBCBAxxyIggIAoKA9yEgROB9dS4lFgQEAUHAAQEhAgc45EQQEAQEAe9DQIjA++pcSiwICAKCgAMCQgQOcMiJICAICALeh4AQgffVuZRYEBAEBAEHBIQIHOCQE0FAEBAEvA8BIQLvq3MpsSAgCAgCDggIETjAISeCgCAgCHgfAkIE3lfnUmJBQBAQBBwQECJwgENOBAFBQBDwPgSECLyvzqXEgoAgIAg4ICBE4ACHnAgCgoAg4H0ICBF4X51LiQUBQUAQcEBAiMABDjkRBAQBQcD7EBAi8L46lxILAoKAIOCAgBCBAxxyIggIAoKA9yEgROB9dS4lFgQEAUHAAQEhAgc45EQQEAQEAe9DQIjA++pcSiwICAKCgAMCQgQOcMiJICAICALeh4AQgffVuZRYEBAEBAEHBIQIHOCQE0FAEBAEvA8BIQLvq3MpsSAgCAgCDggIETjAISeCgCAgCHgfAkIE3lfnUmJBQBAQBBwQECJwgENOBAFBQBDwPgSECLyvzqXEgoAgIAg4ICBE4ACHnAgCgoAg4H0ICBF4X51LiQUBQUAQcEBAiMABDjkRBAQBQcD7EBAi8L46lxILAoKAIOCAgBCBAxxyIggIAoKA9yEgROB9dS4lFgQEAUHAAQEhAgc45EQQEAQEAe9DQIjA++pcSiwICAKCgAMCQgQOcMiJICAICALeh4AQgffVuZRYEBAEBAEHBIQIHOCQE0FAEBAEvA8BIQLvq3MpsSAgCAgCDggIETjAISeCgCAgCHgfAkIE3lfnUmJBQBAQBBwQECJwgENOBAFBQBDwPgT2TQSbm5v7Qmun5/aX4r6yIQ8JAoKAICAIbCHgNhGMT0wh7sFz3AyKh39EMgaGx3QwSyprceVOjIrjb+S9dFjnF1T8+voGnr8shl9YIhJSszA/v6g/t7GxiazXZfANS0R8ynPMWuf1OBLHy4JK+IUn4m5yBiwzVj1ODgQBQUAQEAQ+HAG3iIBCOCg6Bc3t3VhYXEL6izycuhKM+QWbUM8rfouO7n6MjU9heGwCk9Mz0EYAj569wvWAu0rIpz1/jeCYFGxsbKgSPM0qwGW/aFhm5/Asp0gRzNr6uoojQXx/MxzTlllk55XBN/Q+VlZWP7zkkoIgIAgIAoKAQsAtImho6cQfv7yihDKfXl5ewakrQejsGVSJFVe8w9q6Tbgb8Z2bX8A3F/zR2NqpLpM4vr3oj+6+IXCkcPJSIN7Vt6q45ZVVnLgUiLbOXkUip6+GoKKqXsWtr6/juyvBeN/QZkxejgUBQUAQEAQ+AAG3iIACPa+kSvX0+c6hkXFcvROjjwgKy6pRUV2P8Pg0JKVlg/czNLV14Ytzfg4qH/byXxW/wfDoBL4464vJ6Vm9GJf9ovDiVQmmpmfw+ZnbGBmb1ONuBMbhwZOX+vluBxyRTM3MYXzaign5EwykDUgb8NA2MD41C+v80m4i0Wm8W0RgToGqmvySKv1y/IMMFJbXKPVQypNc+IYmYG1tHVW1TTh7PRSrq2v6vdf87yInv0L1/E9fDcbS8ooe5xNyT6mIevqHcOpykE4ovME/IknZGPSbdzkgEYxNzWJ43IKRCfkTDKQNSBvwzDYwNDYNi9XW+d5FLG6L3jcRUHVDoU9DrxbYc9eciSj0v7sajL7BUaXKUUSwtp0IWjt74ZII+j6cCLS8ya8gIAgIAoKAcwT2RQQdXf2ghxB19sZA4++GxgSAMg5X1zWjp38YX36/XTWUW/QGQ6PjSjU0ZXFUDT3PLcHktEWphkbHp/TXUDWU/DhHP5cDQUAQEAQEgQ9DwG0iaO3oxauiN1jf8viZm1tQqpvBkXFcvB2FwS13UpLEuRthaGnvUV4+X5/3V95GzO7i4rIaLXT1DoHeQScuBqCusV2VhCOJM9dCwPeQWGgcflPTqOI21jdw7mY4asVY/GG1Lk8LAoKAIGBAwC0iYM+ccwAGhkcxM2vF6PgkUjPylNF4YsqCE5eC0N7VpwQ/7QcXfSKVZxHfx1485x7Q7fRJViGiEh7r2Uh7nqcbnV+8KkVYXJo+suDcgws+kbDOzSO3sALBMQ+3jUT0hORAEBAEBAFBwG0E3CKCptYu5e9/MyhOCXUKaN+wBF3Y0400NvkZrvnHIvRuqoO3z9raGh5nFuB26H0kpmVjds4+aYyjh2fZRbgdmoD7j15gZnZOLwhHBZmvSlVcXEqG7rqq3yAHgoAgIAgIAh+EgFtEwDfRC4fqHP6ZbQRavNE7yJw7ehG5CvuNc5WeXBcEBAFBQBDYHQG3iWD3JOUOQUAQOEwEZhbX0De1P3/yw8y3vPvwEBAiODzs5c2CwIEjMDa7gnNPuvFvMc14Xjdx4OlLgp6JgBCBZ9arlMpLEShus+CfA+vww+B6nEzrhGGaj5ciIsXeCwJCBHtBSe4RBI4JAvktFvxLcD1+GtaAk6mdWF23T/g8JkWQbB4CAkIEhwC6vFIQ+FgIFLRa1GiARHAqTYjgY+HsaekKEXhajUp5vBoBIQKvrv59F16IYN/QyYOCwNFDQIjg6NXJcciREMFxqCXJoyCwRwQKRTW0R6TkNiMCQgRGNORYEDjmCOQ2TeFHITZjsdgIjnllfsLsCxF8QrDlVYLAx0bgRd0kfhxSj5+FN+Cbhx2wLrmeyf+x8yLpHx8EhAiOT11JTgWBXREwEsFXDzvAWcYSBIHdEBAi2A0hiRcEjhECQgTHqLKOUFaFCI5QZUhWBIEPRUCI4EMR9M7n90UE3J7SuMewGbrllVXzJf18p7iVHZ7bKU5PXA4EAS9HINNgIxDVkJc3BjeK7zYRDA2PISbpKW4ExuNW8D109Q7qr1teXkHKU9um9fEpz2Gds2+kvLq6qjax4Yb2sUnPYJmx7znA5ae5VwHjohOeYHJ6Rk9zfX0DGTnF8A1LROS9xxifmNbj5EAQEAQcEXhWO6Ebi4UIHLGRM9cIuEUEFNB+4YlK+HMvAm4Y882FAFittk1m7iY9g39EMtjrT3+Rh+CYFG5goN6emJoFn5B7ahObjNxi3AlPBIU8w8OnuWp/48WlZeTkl8Mn5D5Wtza6f5pdqLbA5M5m+SVV4J7FJBwJgoAgsB2BlLdj+NfQevw8vAFfprTDsuB6dL79abnirQi4RQSNrZ3445dX9B471TWnr4agf3BU7Vv81fd+6O4dUlhyB7Jvzt/BwNAolpZW8NX5O2jt7FVxFPjfXgxAR/cAOBrgcX1Th4ojAZy8FIjmtm61Z/Gpy0Goqm1WcWoP46shqH5vO1cX5Z8gIAjoCGhE8IuIRvwjqQ0js9Jp0sGRA5cIuEUE7JVXVjfAMmNVCfYPjahtKbkjWX1TO7654K/2JGYkdzI7fS0ExZW16OkfBknCqCo6fysCuUVv1H7HX5zzxZRlVs/klTvR4F7Fk1MWfH7WF9wrWQvcJpP7H7sTaNMgidh+eSx/goFntoEHb0bViIBE8PekNgxOL0t795rvfUPJXXdko3avW0SgPaT9cqP5kspadVpc8Q7nfSKUwOUFEsHF21EoLK9BQ3MHzt0I09U9jL/mfxc5BRVqlHD6WjCWVuw9F6qQnuUUoadvCBwRzM3bbQ3+EUlISM3SsrDrL/MxMDqFnsFx9A5NyJ9g4JFtoG94AkOjk4jK78FPwxrxy8hG/OV+C6rbR9V1afue/+13D4xhYtrWSd9VMJpu2DcRcCP70jfv9eRICOzls+etwhYRFJTXoLGl00YEq/bJLSSC7PwKtHX24vTVYAcvJBLB05wi9PYPKyKwfgARMC9Ly6tYWFrBovwJBh7cBujJl1gxjJ+ENoAjgr8ltqJ7bF59W9L2Pf/7X1haxopBxurCeQ8H+yIC6u/L3tY5DEPeN7UrO8D8gm2v1I3NTZy6EoTSt+/RNzgCqn9mtozKzBdHCK+L32JkbEKpf4yeQhdvR4KjjSnLDD47cxsjY5N6Ua4H3MWDJy/1czkQBAQBOwLJb2zGYk01NDorxmI7OnLkCgG3iaCxpQv5pdV6ejOzc5iansXc3AK+Pn9H9fAZOT0zi++uBishTqMyvYvqW2wG4fn5RWVk7h0YUSOIk5cDUfO+RaVJj6Az10LR0d2viObMtRBFOoxcW1vDuZvhaGju1N8vB4KAIGBH4G6JfURAG8HIjF3lar9LjgQBRwTcIoKhkXHcfZCB7t5BjIxOoLtvCIlp2egbGFGpPkjPUXMLaPjl9aS0bP1tac/zlGGZPf+Hz14hLiVDj8vIKcIl3yhlHOZ8guiEp9iEze30ZX4Fvr8ZruYPPM8tRkR8ul39pKcgB4KAIEAEYg1E8NeEVvRPLQswgsCuCLhFBC0dPbgRFKfmA9DX/7JfNIJjHqp5A3zT+sYGKKx9wxLwJLPAQe9PL5WsvDL4hSUiNeM16EKqBRp0XxZUqjkKnJBG7yRjyCupUnHJ6dkOhmPjPXIsCAgCdiL4ZUQj/uteKzrHFwUWQWBXBNwigl1TkxsEAUHgUBHQRgRCBIdaDcfu5UIEx67KJMOCgGsEhAhcYyMxrhEQInCNjcQIAscOgZgtG4GMCI5d1R1qhoUIDhV+ebkgcLAIBOcN4KdhDRAiOFhcPT01IQJPr2Epn9cgQD+7wNdCBF5T4QdYUCGCAwRTkhIEDhMBMxH8Z1wzWkbsy7McZt7k3UcbASGCo10/kjtBYM8IGIngV5GN+Pe7zagftC0Rv+dE5EavRECIwCurXQrtiQg4I4IGIQJPrOoDL5MQwYFDKgkKAoeDAIkgaMtGoI0IhAgOpy6O21uFCI5bjUl+BQEXCKxvbsInuw8/C2+AEIELkOSyUwSECJzCIhcFgeOHwNrGJq696BUiOH5Vd+g5FiI49CqQDAgCB4MAieB6pp0I/kBj8YAYiw8GXc9ORYjAs+tXSudFCBiJ4NeRjfhNdBPe9uxvxyovgk2KCkCIQJqBIOAhCDgQQVQjfh3VhDfd9r3APaSYUoyPgIAQwUcAVZIUBA4DASGCw0DdM965byLgrmPGPQUIx/DoBPJLq9Qft6GsqG4AdxzTwsSUBfklVejuHdIu6b/czIbPcmcyc+AuaAVl1Wjr7DNHybkgIAhsIbCyvomLz7qVsfjXMiKQduEGAm4TweDwGB4+y8UVvxhwq0ljyHxVirC4VNx7+BwxiU/xJDNfJwsK+Gv+sXj07LXauKaiql5/tKdvCNzM/uHTV2oDmuKKd3rcwNAYuE8xN6y5E5GE/JK3epwcCAKCgB2B5bUNnH7chZ+HN0CIwI6LHO2OgNtEMD1jRUFpNf5+6hZ6+4cd3kABvrnBaS2Ogdco6NNe5KmItq4+nL4aDOucbR0Un5B7SH6co+J6+odx6nIQpi023WZAZDLiHti2teRWmScvB2FsfMrxBXImCAgCIBGcESKQlrAPBNwmAu0dt4Lvqb2LtXP+lr19j7GJabR39WHUIKwHhkbx2Znb+jVuW/ndlSC8edeEWes8Pj9zG+z5a+Hs9VCUVNZicWkJn5+9ja7eQS0KF3wikZ1Xrp/LgSAgCNgQWN2AgQia1KSySjEWS/PYAwL7IgLaB24Exm0jgvQXeXiaXYjw+DRcvRMLTcVT29CKU1eCdTUR80XVUnZ+OXr6h3DiUiCs8/ZVEm8GxeFJViGGR8fx7cUAfXTA5/zCE3H/UeYeima/xTq/iBnrgvwJBh7bBji6HrfM41Rah1IN/SaqSf1m1Y1hYUHavzd8/xbrPBaW7DZZuwTc/ehAiSDrVSmGRifUW2k/+PZCAGZm51FV2wT28tfX1/UckSi4YX1ze7dSE62srupxPsHxyHhZjM6eAaUKml+0b8DtH56IxLRs/d7dDjY3NzE8bkH/yCQGRqbkTzDwyDYwPDaFrqFJnHjUjl9ENEIRQUQjHr8dwOSkxSPLLN+zozzrG57A1MzcbiLRafyBEoHxDRTAl3yj0NjahZb2Hnx3JRhLS8v6LSSCrPxydPcN4uTlQMzN24X9reB4NSKgTUCNCGbsk2Lu7GNEoL9UDgQBD0ZgaXUDJ1M7dSLgmkMFrRYPLrEU7aAQ2DcR3AyKd1ANLSwuobC8BlPT9gksV+/EoKauBZNTFmUjoP2AgcZjGoQrahpA11DaDwaHx/UynbkeiqLyGjBN2g+6++zuphd8IkDvJAmCgCDgiMD8yjq+eGAfEQgROOIjZ64R2BcRMDkSwejYpJ5ya0cv/vjlFd2jZ2RsEt9cCNANxJf9ovEsp1Dd39UzCJ5rowDaG1IzXqm4/qFRXLwdBcusbRTgF5aIhNQsFcf3MW58i1D0l8uBICAIQIhAGsF+EXCbCAaGx5CUlo0f//u3yiisTfJaXllFUnoOaDB+ll0En5D7ePwiX89Xc1s3LvvF4FlOEegSSg8jLbR39StioKE5MPoBisrt8wg4x4DPPc4sQHBMipqQpj0nv4KAIGBHwBkRFIpqyA6QHLlEYF9EkJ1Xpmb68lcjAu0Nb2ubFBHUNbZrl/RfjhLo+kkjsDlQbUQvInN6vG9yagY5+RXK1mB+Ts4FAUHAhoCRCH4b3YR/Da1HbpNNHSsYCQI7IeA2EeyUmMQJAoLA4SFAIvhyy0ZAIvhhcD0y6+3q28PLmbz5qCMgRHDUa0jyJwjsEQESwWfJNmOxEMEeQZPbFAJCBNIQBAEPQWB2cQ1/jG/BLyMbIUTgIZX6iYohRPCJgJbXCAIfGwEhgo+NsOemL0TguXUrJfMyBIQIvKzCD7C4QgQHCKYkJQgcJgJCBIeJ/vF+txDB8a4/yb0goCNgJoIfhdQjvcY+Y1+/UQ4EARMCQgQmQORUEDiuCFgWHI3FJIKHVfbl3Y9ruSTfHx8BIYKPj7G8QRD4JAgMz6zgP+Ja1D4E9BoiETwSIvgk2B/3lwgRHPcalPwLAlsIDFmECKQx7A8BIYL94SZPCQJHDgEhgiNXJccmQ0IEx6aqJKOCwM4ICBHsjI/EukZAiMA1NhIjCBwrBJwRQcpbMRYfq0o8pMwKERwS8PJaQeCgETATwY9D6hFfNnzQr5H0PBCBfRPB/MIi+GcO3FjmeW6J0+WkufXki9wScG8Cc+AS1S9elaKhpdMchfHJaWS+LoWzpa233SwXBAEvRaBzfBF/iG3WvYZIBHFCBF7aGtwrtttE0D84ivupmTh7PQy9A469jfeNbbjsG62EvW9YAkrf2DefaWrtwqWtOL/wRBSUVus5bevsVXHcsN4/Igm5hZV6XFfvoIrjhjaBUQ+Q9Vq2qdTBkQNBwIBA2+gCfi9EYEBEDveKgNtEMGudR0VVvdpLuLffTgRra+s4fzMcLwsq1LtbO3pw+mowFhaW1DlJIONlkTrmHsTcs5j7FTNcD7iLtOev1fHg8BhOXgpU+xzzgm9oAhLTbFtVcotKbnQ/PDKh7pV/goAgYEdAiMCOhRy5h4DbRKAl7xN8z2Hz+o7ufnx+9jYsFttew6trazhxMQC1DW0Yn7RtXk8VD8Pm5ia+uxKMimr75vVUG2nh3I0wFJZx8/pFRTg9fXbC4Z7FVCFJEAQEAUcEOsYXt40I4stHHG+SM0HACQL7IoKVlVVww/nu3kE9ycrqBpy9HorV1TX92gWfSOSXVYOqn++uBmNpaUWPu3onFln55ejuG8TJy0GYM9gbbgXH40lWIYZGxvDtxQBMz9jIhQ/fCU/E/UeZejq7HZB0LNYFTM3MYXpmXv4EA49sAzPWeVR3TeH3sU34dVST2o/gX0MbEFnQD8ZNz0rb9/Tvf9Iyh/mF5d1EotP4AyOCwtJqnPeJYHdfvYgCmERQVPEOtB2wl7++vq5ngkTwsqASze3dSoW0srqqx/kEx4P2gs4eG0nML9qN0v7hiUhMy9bv3e2A+RiZmMHg6BSGxqblTzDwyDYwNmFBeeuYAxH8NKwRAS97MDphwfC4tH1P//4HRiYV4e8mE53FHxgRvKlpwOlroeBoQQvnb0WoTe7bu/pw6koQFhftbHXFL0ZtVt/TP4QTlwJhnV/QHsPNoDg1IhgeHce3FwIwZZnV4/zCEtwaEegPyoEg4OEINAzO499iOCKw7VD2k9AGhOTbR+0eXnwp3gcgsC8ioPrnZlC8g2qIKh7aCKamZ1R22MP/5oI/6ps7MDk9g8/O3Mbo+JSK29jYVMbit7VNsM7NKzvAwJB94suZayEoqazF4tIyvjjrq0YGWhlJLjn55dqp/AoCgsAWAtU9VvwuWohAGoT7COyLCPgaevqMjk3qb9zY2MAl3yhk5Ng8g+qa2pUdQRsh8P7UjFfq/pb2Hlz1j8XC1gjhdsh9JG15BtFd9LJfjCII3kyX0dikZ+q5gaFR5Uo6NW0fIegZkANBwMsRqOkVIvDyJrDv4rtNBHQZjUl8gh/94Rv4RyajsaVLf3lbRy+u+d/Fgycv4R+RjPeN7XpcV88ArgVsxUUmo/p9sx7HNK8HxOHB4xyVZmVNgx43ODyOG4HxSErPQUBUMsoMcxP0m+RAEBAEIEQgjWC/CLhNBJwBTNfOt++a1C978MZAV9GCsmoMOfH1Z0+ez7Jnbw6WGSsKy2u2TVLjfZy7UFT+TnkYmZ+Tc0FAELAhIEQgLWG/CLhNBPt9kTwnCAgCHxcBIYKPi68npy5E4Mm1K2XzKgQqumbU/AHNa+inYQ3wy+3H+obNpdurwJDCuoWAEIFbcMnNgsDRRaCozaImk2kTykgEPtl9WBMiOLqVdkRyJkRwRCpCsiEIfCgCQgQfiqD3Pi9E4L11LyX3MASECDysQj9hcYQIPiHY8ipB4GMiIETwMdH17LSFCDy7fqV0XoRAsdgIvKi2D7aoQgQHi6ekJggcGgL5LdP4VZR99VEai2+JsfjQ6uM4vViI4DjVluRVENgBgayGSfwyohG/2VqG+mfhDbiY0Y3l1Y0dnpIoQQAQIpBWIAh4CALOiODCs24sCRF4SA1/vGIIEXw8bCVlQeCTIiBE8Enh9qiXCRF4VHVKYbwZASECb679Dyu7EMGH4SdPCwJHBgEhgiNTFccuI0IEx67KJMOCgHMEMuudGIvFRuAcLLnqgIAQgQMcciIIHF8EUqvGQE8ho9fQ2SddWFwRr6HjW6ufJucHSgSlb2px9U6M2saSm9NH3n+s70XMHcxe5JbALywRialZmF+wb0i/ubGJ7NdlKu7ewxf67mQKgk0gt7ASfuFJiHuQAcus9dMgI28RBI4ZAo9MRPCLiEZ8+6gTc0vrx6wkkt1PjcCBEkFe8Vtwo3puYTk0Oo7JKQs2N21L4HKbSu5QNjM7h9TnrxES+xDcu5jhaXYhLvtGY3rGqo4DIpOxvm5rvNl55fj+Zji4qU3W6zL4hiWA+yFLEAQEAUcEhAgc8ZCzvSNwoERQXPEOa+vbh6Fz8wv45kIAGlo7Vc44Gvj2oj96+oaxvr6Bk5cC8a6uRcUtr6zgxKVAtHX2KhI5fTUE5VX1Ko7kcOpKsMMWmHsvqtwpCHg2Aq6IYF5GBJ5d8QdQugMlgsLyalRU1yMiPh3J6TmYn7epf5rbuvDFOT+15aSWZ/byXxW/xfDoBD4/64tJw4b0l/2i8OJVCaYsM/j8zG1we0wt3AiMU3sia+d7+eWoRP4EA09vA66IwLq4Ju3fa2TAXiTi9nsOlAjiH2SgsKxaqYcePH4J37BErK2vo6q2CWevh2J1dU3PATe5z8mvUD3/01eDsbS8osf5hNzD05wi9PQP4dTlIHBEoQX/iCQkpGZpp7v+8uMfHJtG79AE+oYn5U8w8Mg2MDY+hej8XvycS0xEN6mdyn4Z2YgvktvQ0juOodEpjyy3fNN2mdYzOI5Jy9yuMtHZDQdKBOzdU/AyUOh/dyUY/YOjeN/QZiOCte1E0NrZC2dE8IxE0PfhRMC8zC8uY25hSf4EA49tA4tLy4gqGgAXmvvtFhHQWPz1ww6MTi9gQb4Bj617TbZZ55ewtLw/++mBEsHG1vBLY5zrAXdRXdesevZffk/VkL1nT9VQbtEbDI2M44uzvpiyzGqPgaqh5y+LMTltwednb2N0fEqPo2oo+XGOfi4HgoAgYEMgrmwEPwl1JIIvHrTDuixeQ9JGdkbgwIigb2AEl3yjMTg8pt5Iw+65G2Foae/Bysoqvj7vj5aOHhW3uLisRgtdvYNYW1vHtxcDUNfYruI4kjhzLUTdS5dTGoffvmtScTw/dzMc7+pb1bn8EwQEATsCcWXDDkRA1dBfElsxvWAfidvvliNBwI7AgREBe/b09uno6ldqoZz8cly4Fanr/pPTs3EzOB4Li0vKRTQq4bGei9SM17jqH6vmFmS+LkVYXCo2Nm3eRxk5xbjgE4m5uQW8KqpEcPRDZXfQH5YDQUAQUAhEFg3hX0PrddUQieCvQgTSOvaAwIERAd/V2TOA2ORnuOYfi5DYRxgem9CzsLq2hvQX+bgdel8Ze2et83ocRw9PswpVHCeUGSeNaRPRbocmqAllRhWSnoAcCAKCAHyy+/BjIQJpCftA4ECJgO+nnYCqIFfB6DlkvmfHOIOh2fycnAsC3o7A8toGuPeA0VgsIwJvbxV7L/+BE8HeXy13CgKCwEEhMDW/ppaT4FpDmteQEMFBoev56QgReH4dSwm9AIGB6WX8NbFNbVUpROAFFX7ARRQiOGBAJTlB4DAQaB1dwO9jm/CryEZ9RMDjf7/bjIk516raw8irvPPoISBEcPTqRHIkCLiNQE2fFT8Nq1ezin+3NaGMRPD72Pn4ijUAACAASURBVGaMW4UI3AbUyx4QIvCyCpfieiYCr5unddfRvye24XcxttGBEIFn1vdBl0qI4KARlfQEgUNAIK16HD8Ja1AjgnNPuvCH2GalJhIiOITKOIavFCI4hpUmWRYEzAhEFw8p11EuOOf7sh//EdcCeg0JEZiRknNnCAgROENFrgkCxwwBCn/OISARxJQMOxDB9LwsMXHMqvOTZ1eI4JNDLi8UBA4WgfWNTZxK68LPwxvw66gmPK4Zx5/ibSMCntf0yvauB4u456UmROB5dSol8jIEmofnlQqIexH8Z1wLWoYXcD2zVxmPfx7eiJOpHbLwnJe1CXeLK0TgLmJyvyBwhBDoHF/EidRO/CKiQa0zdDGjRy3z8q5vTo0OaCegyujy8x4MW+ybPx2hIkhWjgACQgRHoBIkC4KAuwisbWyCW1NyBECVEOcM/CSsHrlN03pS8WUjihyoHiIZ/DWhVT0j8wp0iORgCwEhAmkKgsAxQmBqflX17KOKbUtO/zKiET8Nb1D7EDx4MwraC7TAhehCC4bwo+B6RRbcsYzHX6V0oLrXitlFMSJrWHn777Ehgp1WJvX2SpTyez4CFPBpNWP47/ut+E1UEyjUtZ7+VyntyGuxjwSMaKyubSLj/QT+kdSuRgUcOdBu8KuoRnyR0o6Ut2MYs4rKyIiZNx4feSJY39hQ21b6hiUi6v5jjE86b/DeWHlSZs9EYHF1Az0TS6jttyIkfxCn0ztxMq1TqX9oEKben7//ElyH80+7MTq7uyDnSIJCn+TBFUqZBn+5kc3fEtvwqGoctDd0TyzBIjuaeWbD2qFUR54InmUX4eLtSLV7WV7JW9wMisPy8u4Nf4cyS5QgcOgIsIdv/Bu3rqie+/2KEdDgy14/BTX/qN//WRhdQ20EwLi/JLQiqXIUFPDuBC5F8deENrUwHUcVTJ8jBNoZSC4cMXzzqAN3S4aRXjOOroklh3wa80w7hUET5U425N4jhsCRJgIK/FOXg/C21r5n8XdXQ1D9vuWIwSjZOUoIsEfbN7XkMktDlmWMz61icWUDLSMLaByaV71q9oZr++fwfuDg/x5WjcEnpw9PaycQlDcAbipv/KNgp8BnL5+/7LHbeu2NyuD7o5B6/DikAd8/7Ub72CJmPkC/b11ax6h1FY/fjSv1EJemUCMNjja2yOGHwfVqtMD5CMZ8Go8/T27H2SddisA+BmYu09yqo97JJaysbYC/vJf1SrtIx9iivR7751A3MIf+6WWX7UGLmFteR//UMkZmV1SboFvu0qpty1zes7kJ9S7i52nhSBNB78AwPj/ri9HxKR13jgiSH+fo53s5oFEssXIUwXkDCCsYlD8Px4DulP91r1UJXnN9+78aUKqQL1M6lFqFqpKfRzTgs+R25YHz4xAKQKpMDvZP9epp1A2z9fBVD1z1xtkjb1A6f5vnD909G9VaQf8Z14xrL3qQ3zKNwtZplHZYHEYAm5ub2GCv3I0/PmMMY7PLSK8Zw2fJreD7+EdS+HEoRyONKl/mvBrPOaJgmQ4ar72k96d7LbiU0QP+8n6quHjOdZaM9fiT0Ab8+X4rWPfm9mA8P/O4S9lg/pHcptxxWR/c9U2750ZWr3rX6fQu/ZoWd9i/oVvfNElwP+FIE0FTaxdOXg7C3PyCXjb/iCS157F+YZcDGpnfd43jd9GN+B++tfjf/nXy5+EY/Euwrff8T4Hb6/r/BNThRyENYI/3n4PqlRD7SVgjfsged2gDfhpOL5yP/0cha/yjMP23mCZcfNKBkFfdKG0eQVvfOHqGJjE9bYHFMqN+R8an0T8yeWB/o+PTGJuYVu9q7RvHu45RRBf0wCezCycetilSIDEZ82o+/hR4OXsH6+v/BdnrjfXKc5KC+X7G/VPA9vZglAdsDxx1sS2wTbBOmJ52z/8NrFNthPdp147K7/+88x7/604tMmpGgE37KGYX8ahHH20iaOtWRGD9ACKYmrGitXcUBQ3DeFk7iNz3Q/InGBy5NsC2Wdw0jP7hCYxPTGFodBIDFPjDE+gZHP+of71DExgY4d8kBkcmMTo+icmJKbT0juF1nXwvx0lmvO8cwfKK+zbUI00EfYMj+PzMbYyMTerMdT3gLh48eamf73YwNTOHnsExjI5NYmx8CmPj/JU/weCotYEp1c77hidAwXwU/kgMJAVpK8cHA7YfCnV3w5EmgpXVNZy+GoLyt3WqXGtr6zh3Mxz1zR17LuekxYqOvhF0DYzJn2AgbUDagEe3gY7+USwseRgRUNrn5Jfj+5vhmJi04MWrEoTHp2FjY+86MDKdxTqPmbkF+RMMpA1IG/DoNmCxLmBt3X2vpiM9ItC6/a+L38IvPBFJ6dmYm7MbjrV4+RUEBAFBQBDYPwLHggj2Xzx5UhAQBAQBQWA3BIQIdkNI4gUBQUAQ8HAEhAj2WMGch8P5DPvRvy2vrIJ/DPMLi1jfow5vcnoGw2OTmLXO7zGXjrctLC7teTmO+flFtY4T13KamLJgfX3vdhjHtwJ879LS7jM5nT3HCU9cX2p+cW8TY1bX1tSEQ046XFvb32qa8wuuZyGb80hXZsuMVf0tuPGcOR2ec44LsXI3cMa9tggjnzdPEnOVHvM9OWXZl3sh02Sd7vVdi4tLOk77bb9aOVhGOoq4GzRs2UaW9uhJw/fwu5u2zLr7Ov1+7b36hR0OiI3WnvbzzRiTpozZbxoeTQRjE1MoqazFq6I3eF30BkXlNRiftBix23ZMV9W7DzLgF5aI9Mw8VUm8aXNjE129g0jNeI2q983bnuOFDcOsTQpSTZgyD7Rz8JyzoumSZw6dPQPIyCkCPaVmrHNqgT1OpqOhnJ5Tz18W6+mZn23p6EHk/ceIT3mOlvYeFf2yoALX/GOVbeVNTaP5Ef2ck4niU17gq+/98cVZX3xz3l+57F65E4vCshqsrjr/ABeXlvE4swBcDJDPcxa4FkYnppD5qhQ5+RXbSE8Jkq3JrZwRS0xo/KcQf/A4R7lQdnT143Fmnpacw29BaRXe1trKQ++xS7ejcPpaCM5cC1Hlbd4qv8NDWydZr8sQevcRHj17rQQwcY64l4ZLvtGIuJeuHBKcPcdrdU0dKv2/nLiBz0774B/f+eDvp26q9Dq6+109pq4XV7zD7dD7CIpOwfvGNv1ey6wVReXv8PBprsOkSf0GFwdZeWVby6xsIu7Bc6dk39jSiey8cpUC29vtsAR89f0dnL4ajJOXA1FQWu0idaCmrgUhdx+q9tQ/NKruS32eh4u3o1R7am6ztTFnCQwMjSEk9hH+duom/n7qFj4/4wNiRrfvN+9ct8PZuXkkpmbhZlA8EtOyHOqid2AE6S/yVHt09k5n1yjQiQ0/yXf1rao9mu9jW8x6XYrmtm4VVVndoJa04bI2314IwI2geNCF3VkguaQ+f42wuFQ8yylS3/7w6AQCIpNx2S9aYWecCGtOo7yqHt/fjMCfv72u2tPfv7uFz87cxt3kZxgcHjffrp8zz9l5ZbgVfE85zrR39elx7MTlFlbiSWY+VlbdW4PKI4mA7P/o2St8ezFQCTUK0jPXQvHlOT+cvBy8VUnbe5zsxQREPkD4vXRU1jQg/UW+apwDhoqhsA67m6qDbzx4XfRWCRUK5aS0bMSlPFfPn7sRBq6R5B+RrJbMYI/bGNhg7oQn4U54IhaXVpDwKBPBMQ/R2tEDfoh1je2ISnisSM34HI/Zc4lJfKoaAO8j2fGcBMIPmqQVeT8d/JjMoX9wBLdD7quZ2m/fNaGxtQtNbd3KPbegrBp3OIv7Uda2RkU5nvY8D9cC7qL07XslcGKTM1Df3Km/gmld9o0GP3BjsFrnFclRMNx/lKn+SGD8AP526hb8I5PxzYUARN5LNz6mjhtaOnHiUiByC99gbHIal31j1AdOEurpH0ZecZX6OIZGtn9I7xpaEBaXpoQC1656VfgGF3wiFTZtXX14nluMB49fbut58sNjJ4JkwY+M5MOPj38U6k+zi1Q6xM9ZqHrfpIRLfkmVqr/oxCfgsdZJYO/x/K0ItHXaP2gtHbY/5pH1GfcgA3z2bnIGvr7gj/O3InHN/65K2+xFx/bF50huq2vrSjgRY3Y2iE1tQ6sisPdN7dqr9F/Gh8Q+BAVVbUMb8kurEBj1QJWfArOiut5GmqY2zAQYT7Jg26DwZZmIE9sCy3wtIBaPM/MV8esvVGv4bKqODDsVpW/e43luiSpzV8+gfltFdYMiE/3C1gGFn29YgiIQtqfYpKfqWXoX/tc31xB6NxV/PnFdEYn5Wb7r87O31VpmPX1DqjPBTtvA8JhqTy8LylVbnZmdMz+qSIn1QozKq+uVcP7uSoia48Qyk9wzXhZtG0FxtPv4RT6uB8SpNIiN1p74vaY8zVUYsnPnLOQWVYLypLSyFvxGKWsoq7TA7+Ls9VCMT7i3SrNHEgEbGwGiusD4kfCjnrLMKuFz7+ELpYLQAOQvGwMbkzGwUbwqfoOhUZtw4Ud0/+EL4y36MYU2iYQ9eQrknv4hdPcNqp4un2ls7sSNwDg1uU1/CMDI6ITyiOI19oxDYx+pIbzxnoGhUdUojeVhPIUayUkLI2MT+PyML1o7erVLKK58B44QzIEfbHFFjfmy4XwT0QlPFCEZLoKjgbjkDIc8cnhbWF6DprYudeuUZQZhdx9tU2sx/+x5ESMKfQoP4t7a2at6m5VV9epDiU16ZnylOubqsyUVterYVT0QC95nDuxtGkctT7IKlLA03seRoHFdK8ZZ5xYQcvfRjioc1k1YfOq2j57PP3yWCxKYFtgG37xrQnlVneqt8jqJur1r+6iio3tAke33t8KVwGHvlIQXk/QUz7IL1TUSqqYm0t7BEQrrloGqh4CIZC1K/21p7wa/AXMg6XEkqAWSJEc/rF8tcHRa6WSUSbJqMbQ77X79d3MTQTEPFYnr1wCVdnTiUwf8JqdmFFmzvAx9g6Oq9218jsdUs+aVVOGLc36KJLv7hlSnh+3qZvA9RUb3Hj5XI3nzs08yC/QRNImKPWlzoDwwjuIYzzpkx8ViIIjIe48REPVAf5z3sExUBRvD4PCY6qwYr5mP2aEjcTsLvM72pgWqg0heNfW2hTg5yg6KSREioKDh8H+3adbBsQ+xuOSon2Vv6GlmgYax3jD5MXEozZFBXVO70w9IfwhAdV0LHj57pXpCvP72XSPyit+oWyjAzL1k5oOzpau3VE5lb+t0gaqlm5lbogjIoH1SUewNcPShhcS0bNXb0M75m1f8VvVYjNd4/DK/Arzf3Fi1+yg4g2NS0D9ob3iMI7bs1UxN2/SoGjmxl8ueGwUfe6VhcduJQEub76Sq5kVuibqX11OevFTLK3CE9L5xe2+VPdr4h88xPTOLhaVlpXqyGkYcs9Y5NZJiz8oc2HvTSIpkSxVYUcU7h9s46jLOYmckda4sR3Wdc3Ug7yHxUAg6CxzGG0lZu4cjL37AVGGw0+KMCLR7Syrfq/bR2WvrIZPUq2pt+WFHwGy3mrHOIzb5mRoBMA2qJY3Cg9eI9dOsQu0V+i/VSRk5xfo51Vnh8Y6jM3a0OGIwh9SMV+Cy8RSCzkJ7Z58if3MPm/X98Okr/RHteRJcYVk1Onr61UiG37WrQDVf+vM81abYDhg4eqJKl6ox4m0O9U0d6lvme9hB5JwlbaTGe2kroErP2IHgdeaPoyaqghg4KqcajCN4LbBew+LTYLY/TU3PqBEWOz7OAtMmIWlEbr6H5KW9V8OJ99TUt4KjUuaf36yMCACls+Mwkzp9zUhLsFZWVhWIHDZSAGoCTAN7fWMdRWU1ajh5OzQBVJ1ogT0i9hooiJz1VrX7tN/pGauyTVA/TLsCJ8PtFKhb5bCWjYd6xy+/90VgdIoaodwMjFfDQY4wzIE9VgohEklSWo4awlNQUMiwR8kP1j8yaZswZzpz84uqUVLHzo89KS1LCQiW705kEk5cDsSrou29az7LHhc3CroVHK+Ev5Yv2jg45GaPmx+RUVBr9xh/lW3kZbEa2bBezB+d8V4el76pVT109rau+seqkQWFHrH77kqwUp84MwzSdnInIlG1DZ+Qe0qPTSFDvTVHcsSPPWSzUOU7+YFTrXjlTgyiEp6o4TvntFBFSBXN2ethGBqxCQVzfkmI7D3ynSlPHZdGYc+PdhT26nezM/DDZhuiaiYhNUthbH6X8byts1fhxDZEYc6lWljHxOqCTwQu3I500MNrz1JQhcQ8VIKIGF/xi1Htnu2JOLFDRDUmO0fmwGepGqIqlm2YNh/iynZC3T8xdGVfY2eJI+Grd2J1nT3T5+iTKtdHGa8QELV9ZGPOQ2NLl8o7O1W0c/D72CnwW6FePyI+TanoWJesL+afKx+ToIwCV0uL+eWIlsRHFSi/QWLDjl5v/7BqjyRMZ4Ej4n+c9lGYsN1SjcQRK8nlzPVQpUKj/HAW+gZGlNqUmgUSlzGwE8bOFVVwu9lCjc/x2CNVQ2R4VgwbHoe1NILyQ/jryRv47KyvGpq5suzz2bySaiQ/fgmtZ6GBRm+NF69LQeG+18AhLXujrPzdAvNEsuGHc/VODL654I/rgXF4/rIElhnXXgzszdBglfb8ta7aoN4yNC5VCYGm1u29IS0vHFpTjx1xP12pSr6/FaF0rjSE8cPfKdCASjuImaBoNK+sqcfT7EJFvjulwTgSND8s9siNw21XzzFfNFRTB05dOD9eDof5ITj7aLV0qHelYKKBloGdBBIWPyqSAD2nXAUKPvaWaXSlWovGaQpE6tCdEY8xHfbgqGLQ9tUwxpH4aBxl73MvgcTJnrGx9+nqOfa0cwoqlG2EOH19/g58gu8pW8dOI2Y6WbBHyvrTRotU+/mFJ6l3Uxi5CjRSUu1FgzHtcsSKhk2mtZMnDuuNbYA4mduApv6hYXcvgXkgcVGtye95t8AOI504SAjfXgxQxnQSQUOLTc3p6vna+lb1HMmZgasfJKRmKmKnfWend/NeEgXbHu1e1PuzXtlx2837jfmlIdyZYwRtDmzjruSbq7J4JBFoheUQlD0QsiT/qEZxlym1tD7kl8PTpeVl9fch6bj7rPFjNx7vlA4/yLmFxR3d0HiPeTS1U5p7jSMhLC/v1dthUxHI6urqjsLf1bv5odA5gN4fhxX2iyEFI/8Y2DlxoYk50GKxZ86/TxHYVlX97ON9JC7mk+S8U6fgY5bjIN5r1GTsJa97/b5dpeXRROCq0B9ynY3MlXsX1Qr0LKGXBUck7L1pgcbT18VvFCE5q2Q2HvaI6O1EjwsGGso4pD51JUipmZw1MPM17ZwqGQ45qaskGVJPbA4Ughwat3fbPFZIlBd9onD+VrgaolKlYNaZMw2mSe+G3ILKbfYO8zucnXMlWPbA41IydFUB9fpcRoQqPfayXQUac9njuegTif/++qpyvfv2UqDqIe22GCGfpWrnszM+6rkvz/oq3e7NoHvKruPqnRRKrBff0AT1bs02wvtpwKWufadR4vDYhLon+3WZGoVQj8sRJ10G6R3GEZ07gV5T7xtsbqjsQZMMjIGGVqOBk2027UUeLvhEKW8ylmMnrFgW7Xnq1i/cirC5VV4JUp5KVDm6ClRXcKRGXTaJnfYw9szpjkyV47TFucqD7ZYOFr6h9/Hnb67iT19fxZ+/uaZ61/ymdvKP57Ns36evheJvJ2/iy3O+SvXC0QhHjmabnKu8O7vO0ZzZpsH7SMSZr0vV6Jnt2GiD4TdD2xCxcIfsabfhPA+2F9oYnQXKBiOGPPcJvY9zN8LVlr4srzP54iwt4zUhAiMaeziua+5wuTEOG+x5nwjVKLPzy5VKiEYczXTW2z+EC7ciMTLqOI+ADfnFy2I1LKWHCofSVFnQO4T++AUlVWqvZg65zYGNJigqRbl60v2RgoF//BipCouIT1cfBb1MzKG4/B2+/v6OIp6ungGlI6XXSFffoPLiYR7opWDWB7O3RZc9eo9kvipBcWWt8uowp+/snM9yGE67CfWp/PgfZbzGqcvByqhNAcS8OxuW005DPWpyeg44LKc6jHra/NJqVWaq0lwZK+miRxfQpPQcpabjEJpCrraxTZHhFf9YhTm9LoyBdUOdMYfwJCiqOKITnir7k3YfCZT2A2eBAkJTj9DuRKFIUqGHEsvODgPVEM7UCMSfApT3kDgpSFkfLCeJkHk6dSV4m7Bpbe9Rag7mh2q6+AfP1TlVGHR2YL1RnabNOTHmm4Z+ulRSpcTRMwUM22B376AqM9s4bSOcf2IO9Fxh+2WHhm2V83doM6Dth1hTFcKyGw2yTIMYU2hSoPE56vfZCaFQYxp0haatwhlhslNCDzZ2IKjyY/n4LtZv2dv3St1IO5bZG8ycd1fnxJ1pmgO/J+aLbYJCn+7OVJVqgeqbszfCdNWadp2dCqqK2cGjmzjrlvV698Ez/PXkTfUdn7gUoDoI2jPG38CoFN0Jhe+j6zGxo+GbaiWmS1UjMXUnCBEY0CJ47A2FxqYqPT17j9Rb848fMCuMvTgKI3PY3NxQwoiukFqgAKVniuavzeEbP3pzL5uGQDb8oS0vhNnZOWUI5Ueghc7eAaV/NFewslvklqqPlwKLRkIaHqmPJqHUNbapslCAmQM9f7gLHENuQQUysu1uqNq991Keo8G07DdVKlH30pUwoMqLuvn4hy8QnfRUCXgKDn70ZcpF0rFBdvUO6K6yfAcFIHWkxhEL80SiMAcKTn50xlBRVa8+Al4jrneTMsAJaeZAAVrv5IPW7mPPja6NZoHBkRXrnwJHC/Rdf1lYqUZsvDY0TN975x4ttpGT3XWXPvK0+xiDzc5in5CnxdGz5KJvlFp6nT0/CheOMiMTniivLXoOcdKgmUTonUPhy0BjKW0Z5p4piZR2IHN4WVCp+6W/q2tRkwXN97Bu2YkwBwqg/qEx/XJaxuvtLrrJGdvUszOzViUcjeUg6We8tHsvUdg5a8MU0qzbnQKfNaal3UuDLAU9v2d+l8Y/CnbaDH77l3OqU6Q9w19+gxTmE1N2uw5xphsrSYiBAp+GetppjIHPss1+fd5fCX3WMb/ttq5+sKNA8mJnJjzOVn/GZ3nMjp02x4AOC2Vv3ptvUe11csujb1ukiwtCBCZgnmTlq149e3n0KOGv9ldV16x6q87c2NjzepZVqNzcmKQmsNnDpGqGPU/qL8OdEAHdVu+lOPp004XUOKFGu8f8QWvZp4scDXw0NlMVwF4XPRHW19ZVnrQGqt3P36raJjUEpXFqZHxSTZzihBctjI5NqUlwZmMwiYAuaoOGj54kxx7hvUeZOHExEP/xxSU1MU/DQUuTJEVjuBaKy2uVcc6o3qDagh4n5kBiZI/UGGgUNJIGXRjNbqG8nz1RThpzFWi05ejCOOzmvawzCnNzoEGysLRaCWbiRE8bZ4EfK0dbWiDR0J3XGOgF1OlC3UL86Nf/4Ekuere82Nhb11yNScJGkmK6HBFoRMBzjpzMq/Z2dPWpkZkxHzzmyIm9VI7cKMxooDWqGqiiYafF2PvV0oi6/0Q9z3PmiSMXtmNjoKssN4gyBgp9ZxMI6QCguV/2D4yob8/4HI9JjFSv0TvLWaAX2/1HL9R3YY5nJ4ZeOhxJE0/jH79ZdqY4y9isRmOdsD2ZR8r81inkSU7EjypiMxFoeSC2nPNCtaI20qEnI0dajNPcg7X7tV96VnF0xsA8OrsvOuHxNrLVnnf1K0RgQoYTPlz5+PJWej5w6OsssFHepetlRCLyDZOaKJRtrl2lyt2SOnJjYE+IAu52yH1QpWQMXNuGPUZOd3f1Xu1+NkTOdOTQnyTG5RPMjVW7l7/U4b7ILVbeRewZ0aWQ0+OpeolNfooTFwOQmpG3beIdbQuXbkcqVYqROLS0qT/lPc5Iix8IbRf3Hr3As5xiRbrsYVKgd/b0g+5/nJRH4jQHLl3B2c4kPA79aaOgKk77UNMz85X+n5P4zIFeORdv2zyMOEOXHlYcEbE3SbUCJyTxI3YWKBDoXsgJSsyfFki4JCfmn3tpOwv0sKH7LnudHEkYA0efVFdRUO2kA+czHO2wV8vlQkgupW8cBawxXU4qJE5ULbEt0GWUwp11wg4Fl0/hKEETKMZneUw3SAp7TnSj+olqJKobOeKkVw0nT7HtmENDS4fCgSNCtaRGTIqa/fquvkW5bXNyHduZZujWnme7pZcNcaIwplst80jPGAaq17hMhTNCZjzLSbsPiYPY8JzCnTPJqZbjddaVs8DvxZWw5v3vGlpB125zoNcWycsn5L6a5avFs81TRUX7wc3AuG2qIe0+7ZfEy+UzqEKmSlSbQKfFm39TnuQqzQRJhO2OdjWmwUByoiqR+JsxNqdjPhciMCPygefseUclPnGYTcokqbLjB0FfcnPvjPHsEfMDNE+kYk+bOnSqRMy9a1dZpfCnqofD17144VCoKoEYel+tR0MCoODiR+AqcJIZJ1kNm+wdru43XmcvO/N1mdJlaqT7vrFDzc7l8Li4ola3qxif4zEnXgVGP1CqM+rlORzXApfRcKYW0uJJQvxI2fPnejscnl/2i1HEN2LqpWrP8Fe5w1Y3KEOzWXXEni+dANjrdhU4oexVUaXq6RnvoRCiytFVb9Z4r3bMj54qC02lp103/7KXqWbZ9g8r4U8CoJBiR4YC0tmEMGMaJDB2CEgYX52/o1yw/cISVIfGeJ/5uL65XZGGptZkW6Rxn3VFMnLW9pkG64btnG6u/OOIRhPQ7CGzvK6EOZ+n2oyjUerM6TZO11WOFKhS2+t3Yy7Lbudcz4nqY6NTiPYMXbIptI3qLi3O/MsRFwmQnQk6lewUiBO/PdYPCZIdV2LMQBlBot2PB5EQwU6oH/O4vTTCDy3iQX5kHF2YDYmu8uduj8dVOnLdsxFwtFDtvaxsX/sRqHyDWVW317eys0hBfxhBiOAwUJd3HkkE2Gte2sd+rxQadCl201FDx4BqH46Sp21dnwAABYRJREFU3A0kYfYI90qexvRp5zE7LRjjdzqme6qrma87Pcc4hfE+hB2FK8vqLNDFk15YHAEUVdTo9UBVGL2gqAbk6MhZoD6fEy+p5uHIWAucTEpDLNVMWo9bi+MvR1dcAI6jUxrJ6b2nBeaHBuq8krfqPu269kt3VLqKcm0izhY3jnQ6egaUytKZp5L2PFWKfC8dNIyT+7jgHEenfDfL7k4QInAHLbnXoxGgIdOVsNmp4PT9pn53v6Mjromj6Xl3eo85jmtUcXVNo6HdfI+rcwpI6tP3EzhHgDad/QTiREHpbqCB2ZlBmUKVdha6WnNODO1pXI5CMzKzTqh+o83AHLhMCh0b6I3EZ5k3uoNqdi+SM5fjcCaU6e5N24nytntZrJ412o/oFMF4M8FzlB4YmaxsOHwnXam5jDtnc2uBaz0FGRaw067zl+rj764EqfxSvUoVmnFtLXoecskYsz3KmIazYyECZ6jINY9DYHBkXC1CRmFCryXjH4UI1wL645eXHVZU1UB419CmjMXGZ7RjGlDp/krdtLPAD1Kb16E9o/3ShkN9/+//ccGhZ6el09zerQy2JCjtGe2X7+WyBFw332yUp/CjwKA7pHa/8ZfG4z9/e03ZkLR3ab/Ux9OtlO6Lxmd4TIHKJdp/+9dzTpdMoVGV+aIx2fwsMaY785++uuJ0qQkKMwo183M8Z5r0QLrsG6VlU/+lkDav4UTcaKPQJpJxeXI6BpgDCYBOHFogAVTUNChPJ9qFGPhuzRlBu4/4xiQ+cZhLQUJ6VfxWn5uxsOTcfZTtMMa0si491rjmlLZQHEma73UWzEu6kGhY1xpZ0fAui845Q06uCQKAWoHyi3O+ymWPE6sc/qrqVU+Q6/w7U5dw7XcaILmYnsNz1fXK6MpeHRcecxa4KiY9bThT1PwsvZTYs6aQczZbl5PruEYW1503P0tjL9UWXHvemU6a7rec8GR+Tp1X1SMo+oES2OY8My0a0CmUnT3LNazY46R6whyo9uG6Xpwrse3ZqnqlKmFZze6jTIdrGX31vZ8SwuZnWVa62HKRQXPgejucsW0O9JzKLXqjeuR0v6VXkjnQ64xC1xxomOaKryQGjtacEQE93zRjtvY87y97U6fS5CjNmfuozc17+/wNq3VBkRdHBpzox8XonAV6GGmEocWTs7i0uWYYZ92a79HudfUrIwJXyMh1j0KAOlPOm9jJyExBr/l0GwtPnTg9fFwFCk9OdtN6kcb7eI0eIUY9sDGex5yn4oyAqKc2DvvNz/GcAtTZblRcAZOTC10FqrNcLYTI3uVOnkz0lnG2kQ7zQYzZK3UViDHnDZgDF2HTlrUwx/GcadPjy6x+o8Blz56jJnq6Gb2SuJcI1S9cRZVLbJgDXYq5mjDnBZlVR/Te46iCLt1mImA6HHVwoiE3mzLOlWD7Yg+dbuCc5WtWDXH0xiXp+SxdfI2uqWx7HBnQfsB4Z4Euv3R/JslwFQBjIHnRDZ0uv6IaMiIjx4KAIODxCHCRRE4q5L4cZiMpDb0JaVku5+DQJkQXUBp2zYEGZqq0ONJxFrjeE2eUc/MeYyD5c+TEZd2dkTTnYHBSIN87O+u4nDc7DJwfYJ44aUyftg2+V1MHGeM4KuBGPGYCMt7j7FhGBM5QkWuCgCAgCHgRAkIEXlTZUlRBQBAQBJwhIETgDBW5JggIAoKAFyEgROBFlS1FFQQEAUHAGQJCBM5QkWuCgCAgCHgRAkIEXlTZUlRBQBAQBJwhIETgDBW5JggIAoKAFyHgQARLTtYY9yIspKiCgCAgCHglApT93QPj+EHf8BQs1gWQGeRPMJA2IG1A2oD3tIEZ6wJ6hybxg4HRKfSPTClWIDPIn2AgbUDagLQB72gDJIH+oUn8f730ovVkcHXrAAAAAElFTkSuQmCC;" vertex="1" parent="1">
          <mxGeometry x="340" y="290" width="386" height="218" as="geometry" />
        </mxCell>
      </root>
    </mxGraphModel>
  </diagram>
</mxfile>
